<svg xmlns="http://www.w3.org/2000/svg" viewBox="0 0 200 100"><path d="M2.6 14.8c.9 1.5 2.2 2.3 3.8 2.3 1.2 0 2.4-.5 3.3-1.5.9-1.1 1.4-2.6 1.4-4.5v-.2c0-1.8-.5-3.4-1.4-4.4-.9-1-2-1.5-3.3-1.5-1.5 0-2.8.8-3.8 2.4V.6H1v16.2h1.7v-2zm0-3.9c0-2.8 1.8-4.5 3.5-4.5 1.6 0 3.3 1.4 3.3 4.5v.2c0 3.1-1.7 4.5-3.3 4.5-2.2 0-3.5-2.3-3.5-4.5v-.2zm-.9 28.2H43v-1H1.7v1zm145.2 18.2h-1.6v3.2H144v1.4h1.3v7c0 1.7 1 2.7 2.7 2.7.6 0 1.1-.1 1.6-.4v-1.4c-.5.2-.9.3-1.3.3-1 0-1.5-.5-1.5-1.5v-6.7h2.8v-1.4h-2.8v-3.2zm-13.7-1.1h-1.6v15.1h1.6V56.2zM13.9 85C11.1 85 9 87.4 9 90.6v.2c0 1.5.5 3 1.4 4 .9 1 2.1 1.6 3.5 1.6 2.8 0 4.9-2.4 4.9-5.6v-.1c0-1.5-.5-3-1.4-4-.9-1.1-2.1-1.7-3.5-1.7zm3.3 5.8c0 2.4-1.4 4.2-3.3 4.2s-3.3-1.8-3.3-4.2v-.1c0-2.4 1.4-4.2 3.2-4.2 1.9 0 3.3 1.8 3.3 4.2v.1zM2.9 82.1H1.3v3.2H0v1.4h1.3v7c0 1.7 1 2.7 2.7 2.7.6 0 1.1-.1 1.6-.4v-1.4c-.5.2-.9.3-1.3.3-1 0-1.5-.5-1.5-1.5v-6.7h2.8v-1.4H2.9v-3.2zm13.9-63.3c-.5 0-1-.1-1.5-.4l-.5 1.4c.7.4 1.4.5 2.1.5.1 0 .2 0 .3-.1.2 0 .3 0 .5-.1.2 0 .4-.1.5-.2.2-.1.3-.2.5-.3l.4-.4c.1-.1.2-.2.3-.4.2-.3.4-.6.5-1 0 0 0-.1.1-.2.1-.2.2-.4.3-.7L24.4 5h-1.8l-3.1 9.5L16 5h-1.8l4.5 11.7c-.5 1.6-1 2.1-1.9 2.1zm120.3 75.3l-3.2-8.8h-1.7l4.2 10.9c-.5 1.3-1 1.8-1.8 1.8-.5 0-.9-.1-1.4-.4l-.5 1.3c.6.3 1.3.5 2 .5.1 0 .2 0 .3-.1.1 0 .3 0 .4-.1.2 0 .4-.1.5-.2.1-.1.3-.2.4-.3l.4-.4c.1-.1.2-.2.2-.3.2-.3.4-.6.5-1 .1-.2.2-.4.3-.7l3.8-11H140l-2.9 8.8zM5.2 65L9 60.5v-.1H7.2l-4.8 5.9v-10H.8v15.1h1.6v-3l1.8-2.1 3.2 5.1h1.8l-4-6.4zm152.7 4.3l-3.2-8.8H153l4.2 10.9c-.5 1.3-1 1.8-1.8 1.8-.5 0-.9-.1-1.4-.4l-.5 1.3c.6.3 1.3.5 2 .5.1 0 .2 0 .3-.1.1 0 .3 0 .4-.1.2 0 .4-.1.5-.2.1-.1.3-.2.4-.3.2-.1.3-.3.4-.4.1-.1.2-.2.2-.3.2-.3.4-.6.5-.9v-.1c.1-.2.2-.4.3-.7l3.8-11h-1.7l-2.7 8.8zm-18 2V60.4h-1.6v10.9h1.6zM112.9 7V5.2h-1.7v11.7h1.7V9.8c0-1.9 1.2-3.3 2.9-3.3s2.7 1.2 2.7 3.2v7.2h1.7V9.2c0-2.6-1.5-4.3-3.8-4.3-1.6 0-2.7.7-3.5 2.1zM140 56.4h-1.7v1.8h1.7v-1.8zM16.4 60.2c-2.6 0-4.5 2.4-4.5 5.7v.1c0 1.6.5 3.1 1.4 4.1.9 1 2.1 1.5 3.4 1.5 1.5 0 2.6-.5 3.7-1.6l-.9-1c-.8.9-1.7 1.2-2.8 1.2h-.3c-.2 0-.4-.1-.6-.1-.2-.1-.3-.1-.5-.2s-.4-.2-.6-.4l-.4-.4c-.1-.2-.3-.4-.4-.6-.1-.2-.2-.4-.3-.7-.1-.3-.1-.5-.2-.8 0-.1 0-.2-.1-.4h7.3V66c.2-3.6-1.5-5.8-4.2-5.8zm-2.9 5.1c.2-2.2 1.3-3.7 2.9-3.7 1.6 0 2.7 1.4 2.8 3.7h-5.7zm26.1-48.2c1.9 0 3-1 3.5-1.9v1.6h1.7V9.4c0-1.3-.4-2.4-1.1-3.2-.8-.8-1.9-1.2-3.3-1.2-1.5 0-2.7.5-3.7.9l.5 1.4c1-.5 2-.8 3-.8 1.9 0 2.9 1 2.9 2.9v.6c-.8-.2-1.7-.5-3-.5-2.7 0-4.3 1.5-4.3 3.8v.1c.1 2.5 2 3.7 3.8 3.7zm-2.1-3.8c0-1.5 1.1-2.4 2.9-2.4 1 0 1.9.2 2.8.5v1.4c0 1.6-1.4 2.9-3.2 2.9-1.5 0-2.5-.9-2.5-2.4zm35.8-8.1h-1.7v7.7c0 2.6 1.5 4.3 3.8 4.3 1.5 0 2.6-.7 3.4-2V17h1.7V5.2h-1.7v7.2c0 1.9-1.2 3.3-2.9 3.3s-2.7-1.2-2.7-3.2V5.2zm28.1 11.9c1.9 0 3-1 3.5-1.9v1.6h1.6V9.4c0-1.3-.4-2.4-1.1-3.2-.8-.8-1.9-1.2-3.3-1.2-1.6 0-2.7.5-3.7.9l.5 1.4c1-.5 2-.8 3-.8 1.9 0 3 1 3 2.9v.6c-.8-.2-1.7-.5-3-.5-2.7 0-4.3 1.5-4.3 3.8v.1c0 2.5 1.9 3.7 3.8 3.7zm-2.1-3.8c0-1.5 1.1-2.4 2.9-2.4 1 0 1.9.2 2.8.5v1.4c0 1.6-1.4 2.9-3.2 2.9-1.5 0-2.5-.9-2.5-2.4zM74.5 64.6v6.7H76v-7.1c0-2.5-1.4-4-3.6-4-1.4 0-2.4.6-3.2 1.9v-5.9h-1.6v15.1h1.6v-6.6c0-1.8 1.1-3.1 2.7-3.1 1.7 0 2.6 1.1 2.6 3zM77.9 85c-1.4 0-2.6.7-3.5 2.2V81h-1.6v15.1h1.6v-1.9c.9 1.4 2.1 2.1 3.5 2.1 1.2 0 2.2-.5 3-1.4.9-1 1.3-2.4 1.3-4.1v-.2c0-1.7-.5-3.1-1.3-4.1-.8-1-1.9-1.5-3-1.5zm2.8 5.8c0 2.9-1.5 4.2-3.1 4.2-2 0-3.3-2.1-3.3-4.1v-.2c0-2.6 1.7-4.2 3.3-4.2 1.5 0 3.1 1.3 3.1 4.2v.1zm-16.1-88h1.9v-2h-1.9v2zm.1 14.5c0 1.1-.4 1.6-1.3 1.6-.2 0-.5 0-.7-.1v1.4c.3.1.6.1 1 .1 1.8 0 2.7-1 2.7-2.9V5.2h-1.7v12.1zm53 74.6c0 1.8-1.1 3.1-2.7 3.1s-2.5-1.1-2.5-3v-6.7h-1.6v7.2c0 2.4 1.4 4 3.6 4 1.4 0 2.4-.6 3.2-1.9v1.7h1.6V85.2h-1.6v6.7zm-15.5-6.8c-1.4 0-2.5.4-3.4.9l.5 1.3c.9-.5 1.8-.7 2.8-.7 1.8 0 2.7.9 2.7 2.7v.6c-.7-.2-1.6-.4-2.8-.4-2.5 0-4 1.4-4 3.5 0 2.2 1.8 3.4 3.5 3.4s2.7-.9 3.3-1.7v1.5h1.5v-7c0-1.3-.4-2.3-1-3-.7-.7-1.8-1.1-3.1-1.1zm2.6 7.3c0 1.5-1.3 2.7-2.9 2.7-1.3 0-2.3-.9-2.3-2.2v-.1c0-1.4 1-2.2 2.7-2.2.9 0 1.8.1 2.6.4v1.4zM60.6 57.3H59v3.2h-1.3v1.4H59v7c0 1.7 1 2.7 2.7 2.7.6 0 1.1-.1 1.6-.4v-1.4c-.5.2-.9.3-1.3.3-1 0-1.5-.5-1.5-1.5v-6.7h2.8v-1.4h-2.8v-3.2zm29.1-42.6l-3.2-9.5h-1.8L89 17h1.5l4.3-11.8H93l-3.3 9.5zm12.9 45.6c-1.4 0-2.5.4-3.4.9l.5 1.3c.9-.5 1.8-.7 2.8-.7 1.8 0 2.7.9 2.7 2.7v.5c-.7-.2-1.6-.4-2.8-.4-2.5 0-4 1.4-4 3.5v.1c0 2.2 1.8 3.4 3.5 3.4s2.7-.9 3.3-1.7v1.5h1.5v-7c0-1.2-.4-2.3-1-3-.8-.8-1.8-1.1-3.1-1.1zm2.6 7.2c0 1.5-1.3 2.7-2.9 2.7-1.3 0-2.3-.9-2.3-2.2 0-1.4 1-2.2 2.7-2.2.9 0 1.8.1 2.6.4v1.3zm-16.8 2.4l-.9-1c-.9.8-1.7 1.2-2.8 1.2h-.3c-.2 0-.4-.1-.6-.1-.2-.1-.3-.1-.5-.2s-.4-.2-.6-.4l-.4-.4c-.1-.2-.3-.4-.4-.6-.1-.2-.2-.4-.3-.7-.1-.3-.1-.5-.2-.8 0-.1 0-.2-.1-.4h7.3v-.6c0-3.4-1.7-5.6-4.4-5.6-2.6 0-4.5 2.4-4.5 5.7 0 1.7.5 3.1 1.4 4.1.9 1 2.1 1.5 3.4 1.5 1.6 0 2.7-.5 3.9-1.7zm-4.1-8.3c1.6 0 2.7 1.4 2.8 3.7h-5.7c.1-2.2 1.3-3.7 2.9-3.7zM90.1 85c-2.6 0-4.5 2.4-4.5 5.7v.1c0 1.6.5 3.1 1.4 4.1.9 1 2.1 1.5 3.4 1.5 1.5 0 2.6-.5 3.8-1.6l-.9-1c-.8.9-1.7 1.2-2.8 1.2h-.3c-.2 0-.4-.1-.6-.1-.2-.1-.4-.1-.5-.2-.2-.1-.4-.2-.6-.4l-.4-.4c-.1-.2-.3-.4-.4-.6-.1-.2-.2-.4-.3-.7-.1-.3-.1-.5-.2-.8 0-.1 0-.2-.1-.4h7.3v-.6c.1-3.6-1.6-5.8-4.3-5.8zm-2.9 5.1c.1-2.2 1.3-3.7 2.9-3.7 1.6 0 2.7 1.4 2.8 3.7h-5.7zm39-8h-1.6v3.2h-1.3v1.4h1.3v7c0 1.7 1 2.7 2.7 2.7.6 0 1.1-.1 1.6-.4v-1.4c-.5.2-.9.3-1.3.3-1 0-1.5-.5-1.5-1.5v-6.7h2.8v-1.4h-2.8v-3.2zM57.6 85c-2.6 0-4.5 2.4-4.5 5.7v.1c0 1.6.5 3.1 1.4 4.1.9 1 2.1 1.5 3.4 1.5 1.5 0 2.6-.5 3.8-1.6l-.9-1c-.9.8-1.7 1.2-2.8 1.2h-.3c-.2 0-.4-.1-.6-.1-.2-.1-.3-.1-.5-.2s-.4-.2-.6-.4l-.4-.4c-.1-.2-.3-.4-.4-.6-.1-.2-.2-.4-.3-.7-.1-.3-.1-.5-.2-.8 0-.1 0-.2-.1-.4H62v-.6c0-3.6-1.7-5.8-4.4-5.8zm-2.9 5.1c.2-2.2 1.3-3.7 2.9-3.7 1.6 0 2.7 1.4 2.8 3.7h-5.7zm-9.1-20c.9-1 1.3-2.4 1.3-4.1v-.2c0-1.7-.5-3.1-1.3-4.1-.8-.9-1.9-1.4-3-1.4-1.4 0-2.6.7-3.5 2.2v-2h-1.6v14h1.6v-5.1c.9 1.4 2.1 2.1 3.5 2.1 1.2 0 2.3-.5 3-1.4zM39.1 66v-.2c0-2.6 1.7-4.2 3.3-4.2 1.5 0 3 1.3 3 4.2v.2c0 2.9-1.5 4.2-3 4.2-1.6-.1-3.3-1.5-3.3-4.2zm-6 3.9l-.9-1c-.8.8-1.7 1.2-2.8 1.2h-.3c-.2 0-.4-.1-.6-.1-.2-.1-.3-.1-.5-.2s-.4-.2-.6-.4L27 69c-.1-.2-.3-.4-.4-.6-.1-.2-.2-.4-.3-.7-.1-.3-.1-.5-.2-.8 0-.1 0-.2-.1-.4h7.3v-.6c0-3.4-1.7-5.6-4.4-5.6-2.6 0-4.5 2.4-4.5 5.7 0 1.7.5 3.1 1.4 4.1.9 1 2.1 1.5 3.4 1.5 1.6 0 2.7-.5 3.9-1.7zM29 61.6c1.6 0 2.7 1.4 2.8 3.7h-5.7c.1-2.2 1.3-3.7 2.9-3.7zm97.6-5.2h-1.7v1.8h1.7v-1.8zM33.8 89.9c-1.5-.6-2.4-1.1-2.4-2 0-.9.8-1.5 1.8-1.5.9 0 1.8.3 2.7 1l.7-1.2c-1-.7-2.3-1.2-3.4-1.2-.1 0-.3.1-.4.1-.2 0-.4 0-.6.1-.2.1-.5.1-.7.2-.2.1-.3.2-.5.3-.2.1-.4.3-.5.4-.1.1-.2.3-.3.4-.1.2-.2.4-.2.5v.8c0 .1-.1.2-.1.3 0 1.7 1.3 2.4 3.1 3.2 1.5.6 2.3 1.1 2.3 2 0 1-.8 1.7-2 1.7-1.1 0-2.1-.4-3.1-1.3l-.8 1.1c1.1 1 2.5 1.5 3.9 1.5 2.1 0 3.6-1.3 3.6-3.2 0-1.7-1.4-2.4-3.1-3.2zm92.7-18.6V60.4h-1.6v10.9h1.6zm-10-11.1c-1.4 0-2.6.7-3.5 2.2v-6.2h-1.6v15.1h1.6v-1.9c.9 1.4 2.1 2.1 3.5 2.1 1.2 0 2.2-.5 3-1.4.9-1 1.3-2.4 1.3-4.1v-.2c0-1.7-.5-3.1-1.3-4.1-.8-1-1.8-1.5-3-1.5zm2.8 5.8c0 2.9-1.5 4.2-3.1 4.2s-3.3-1.4-3.3-4.1v-.2c0-2.6 1.7-4.2 3.3-4.2 1.5 0 3.1 1.3 3.1 4.2v.1zM45.1 85c-2.6 0-4.5 2.4-4.5 5.7v.1c0 1.6.5 3.1 1.4 4.1.9 1 2.1 1.5 3.4 1.5 1.5 0 2.6-.5 3.8-1.6l-.9-1c-.8.9-1.7 1.2-2.8 1.2h-.3c-.2 0-.4-.1-.6-.1-.2-.1-.3-.1-.5-.2s-.4-.2-.6-.4l-.4-.4c-.1-.2-.3-.4-.4-.6-.1-.2-.2-.4-.3-.7-.1-.3-.1-.5-.2-.8 0-.1 0-.2-.1-.4h7.3v-.6c0-3.6-1.7-5.8-4.3-5.8zm-3 5.1c.1-2.2 1.3-3.7 2.9-3.7 1.6 0 2.7 1.4 2.8 3.7h-5.7zm15.5-75.4v2.2h1.7V.6h-1.7v6.6c-1-1.5-2.2-2.3-3.8-2.3-1.2 0-2.4.5-3.2 1.5-1 1.1-1.4 2.6-1.4 4.5v.2c0 4.1 2.4 6 4.7 6 1.5 0 2.7-.8 3.7-2.4zm-6.8-3.6v-.2c0-2.7 1.3-4.5 3.3-4.5 1.7 0 3.5 1.6 3.5 4.5v.2c0 2.9-1.8 4.5-3.5 4.5-1.5 0-3.3-1.4-3.3-4.5zm76.6-9.4h-1.7v3.4h-1.4v1.5h1.4v7.5c0 1.9 1 2.9 2.9 2.9.6 0 1.2-.1 1.8-.4v-1.5c-.5.2-.9.3-1.4.3-1.1 0-1.6-.5-1.6-1.6V6.6h3V5.2h-3V1.7z"/></svg>