<svg xmlns="http://www.w3.org/2000/svg" viewBox="0 0 199.1 176.05"><title>アセット 1</title><g id="レイヤー_2" data-name="レイヤー 2"><g id="レイヤー_1-2" data-name="レイヤー 1"><path d="M2.6,91.45a4.3,4.3,0,0,0,3.8,2.3,4.42,4.42,0,0,0,3.3-1.5,6.91,6.91,0,0,0,1.4-4.5v-.2a6.63,6.63,0,0,0-1.4-4.4,4.27,4.27,0,0,0-3.3-1.5,4.44,4.44,0,0,0-3.8,2.4v-6.8H1v16.2H2.7v-2Zm0-3.9c0-2.8,1.8-4.5,3.5-4.5s3.3,1.4,3.3,4.5v.2c0,3.1-1.7,4.5-3.3,4.5-2.2,0-3.5-2.3-3.5-4.5Zm-.9,28.2H43v-1H1.7ZM146.9,134h-1.6v3.2H144v1.4h1.3v7a2.47,2.47,0,0,0,2.7,2.7,2.93,2.93,0,0,0,1.6-.4v-1.4a3.45,3.45,0,0,1-1.3.3,1.33,1.33,0,0,1-1.5-1.5v-6.7h2.8v-1.4h-2.8V134Zm-13.7-1.1h-1.6V148h1.6ZM13.9,161.65c-2.8,0-4.9,2.4-4.9,5.6v.2a6.09,6.09,0,0,0,1.4,4,4.63,4.63,0,0,0,3.5,1.6c2.8,0,4.9-2.4,4.9-5.6v-.1a6.09,6.09,0,0,0-1.4-4A4.4,4.4,0,0,0,13.9,161.65Zm3.3,5.8c0,2.4-1.4,4.2-3.3,4.2s-3.3-1.8-3.3-4.2v-.1c0-2.4,1.4-4.2,3.2-4.2s3.3,1.8,3.3,4.2v.1Zm-14.3-8.7H1.3V162H0v1.4H1.3v7a2.47,2.47,0,0,0,2.7,2.7,2.93,2.93,0,0,0,1.6-.4v-1.4a3.45,3.45,0,0,1-1.3.3,1.33,1.33,0,0,1-1.5-1.5v-6.7H5.6V162H2.9Zm13.9-63.3a2.82,2.82,0,0,1-1.5-.4l-.5,1.4a4.06,4.06,0,0,0,2.1.5.37.37,0,0,0,.3-.1.9.9,0,0,0,.5-.1.76.76,0,0,0,.5-.2c.2-.1.3-.2.5-.3l.4-.4a1.38,1.38,0,0,0,.3-.4,3.13,3.13,0,0,0,.5-1,.31.31,0,0,1,.1-.2,4.88,4.88,0,0,0,.3-.7l4.1-11.9H22.6l-3.1,9.5L16,81.65H14.2l4.5,11.7C18.2,95,17.7,95.45,16.8,95.45Zm120.3,75.3-3.2-8.8h-1.7l4.2,10.9c-.5,1.3-1,1.8-1.8,1.8a2.5,2.5,0,0,1-1.4-.4l-.5,1.3a4.55,4.55,0,0,0,2,.5.37.37,0,0,0,.3-.1.6.6,0,0,0,.4-.1.76.76,0,0,0,.5-.2c.1-.1.3-.2.4-.3l.4-.4c.1-.1.2-.2.2-.3a3.13,3.13,0,0,0,.5-1,4.88,4.88,0,0,0,.3-.7l3.8-11H140ZM5.2,141.65l3.8-4.5v-.1H7.2L2.4,143V133H.8v15.1H2.4v-3L4.2,143l3.2,5.1H9.2ZM157.9,146l-3.2-8.8H153l4.2,10.9c-.5,1.3-1,1.8-1.8,1.8a2.5,2.5,0,0,1-1.4-.4l-.5,1.3a4.55,4.55,0,0,0,2,.5.37.37,0,0,0,.3-.1.6.6,0,0,0,.4-.1.76.76,0,0,0,.5-.2c.1-.1.3-.2.4-.3s.3-.3.4-.4.2-.2.2-.3a4.05,4.05,0,0,0,.5-.9v-.1a4.88,4.88,0,0,0,.3-.7l3.8-11h-1.7Zm-18,2v-10.9h-1.6V148Zm-27-64.3v-1.8h-1.7v11.7h1.7v-7.1a3,3,0,0,1,2.9-3.3c1.7,0,2.7,1.2,2.7,3.2v7.2h1.7v-7.7c0-2.6-1.5-4.3-3.8-4.3A3.75,3.75,0,0,0,112.9,83.65Zm27.1,49.4h-1.7v1.8H140Zm-123.6,3.8c-2.6,0-4.5,2.4-4.5,5.7v.1a6.17,6.17,0,0,0,1.4,4.1,4.48,4.48,0,0,0,3.4,1.5,4.85,4.85,0,0,0,3.7-1.6l-.9-1a3.45,3.45,0,0,1-2.8,1.2h-.3c-.2,0-.4-.1-.6-.1s-.3-.1-.5-.2a2.09,2.09,0,0,1-.6-.4l-.4-.4c-.1-.2-.3-.4-.4-.6a4.88,4.88,0,0,1-.3-.7c-.1-.3-.1-.5-.2-.8a.76.76,0,0,0-.1-.4h7.3v-.6C20.8,139.05,19.1,136.85,16.4,136.85ZM13.5,142c.2-2.2,1.3-3.7,2.9-3.7s2.7,1.4,2.8,3.7Zm26.1-48.2a3.83,3.83,0,0,0,3.5-1.9v1.6h1.7v-7.4a4.77,4.77,0,0,0-1.1-3.2,4.46,4.46,0,0,0-3.3-1.2,9.58,9.58,0,0,0-3.7.9l.5,1.4a6.74,6.74,0,0,1,3-.8,2.59,2.59,0,0,1,2.9,2.9v.6a10.94,10.94,0,0,0-3-.5c-2.7,0-4.3,1.5-4.3,3.8v.1A3.7,3.7,0,0,0,39.6,93.75ZM37.5,90c0-1.5,1.1-2.4,2.9-2.4a8.68,8.68,0,0,1,2.8.5v1.4a3,3,0,0,1-3.2,2.9A2.29,2.29,0,0,1,37.5,90Zm35.8-8.1H71.6v7.7c0,2.6,1.5,4.3,3.8,4.3a3.79,3.79,0,0,0,3.4-2v1.8h1.7V81.85H78.8v7.2a3,3,0,0,1-2.9,3.3c-1.7,0-2.7-1.2-2.7-3.2v-7.3Zm28.1,11.9a3.83,3.83,0,0,0,3.5-1.9v1.6h1.6v-7.4a4.77,4.77,0,0,0-1.1-3.2,4.46,4.46,0,0,0-3.3-1.2,9.13,9.13,0,0,0-3.7.9l.5,1.4a6.74,6.74,0,0,1,3-.8,2.66,2.66,0,0,1,3,2.9v.6a10.94,10.94,0,0,0-3-.5c-2.7,0-4.3,1.5-4.3,3.8v.1A3.59,3.59,0,0,0,101.4,93.75ZM99.3,90c0-1.5,1.1-2.4,2.9-2.4a8.68,8.68,0,0,1,2.8.5v1.4a3,3,0,0,1-3.2,2.9A2.29,2.29,0,0,1,99.3,90Zm-24.8,51.3V148H76v-7.1c0-2.5-1.4-4-3.6-4a3.51,3.51,0,0,0-3.2,1.9v-5.9H67.6V148h1.6v-6.6a2.8,2.8,0,0,1,2.7-3.1C73.6,138.25,74.5,139.35,74.5,141.25Zm3.4,20.4a4,4,0,0,0-3.5,2.2v-6.2H72.8v15.1h1.6v-1.9a4.07,4.07,0,0,0,3.5,2.1,3.89,3.89,0,0,0,3-1.4,5.94,5.94,0,0,0,1.3-4.1v-.2a6.48,6.48,0,0,0-1.3-4.1A3.83,3.83,0,0,0,77.9,161.65Zm2.8,5.8c0,2.9-1.5,4.2-3.1,4.2-2,0-3.3-2.1-3.3-4.1v-.2c0-2.6,1.7-4.2,3.3-4.2s3.1,1.3,3.1,4.2Zm-16.1-88h1.9v-2H64.6ZM64.7,94c0,1.1-.4,1.6-1.3,1.6a1.7,1.7,0,0,1-.7-.1v1.4a3.08,3.08,0,0,0,1,.1c1.8,0,2.7-1,2.7-2.9V81.85H64.7Zm53,74.6a2.8,2.8,0,0,1-2.7,3.1c-1.6,0-2.5-1.1-2.5-3V162h-1.6v7.2c0,2.4,1.4,4,3.6,4a3.51,3.51,0,0,0,3.2-1.9V173h1.6v-11.1h-1.6Zm-15.5-6.8a6.82,6.82,0,0,0-3.4.9l.5,1.3a5.55,5.55,0,0,1,2.8-.7,2.39,2.39,0,0,1,2.7,2.7v.6a9.82,9.82,0,0,0-2.8-.4c-2.5,0-4,1.4-4,3.5a3.39,3.39,0,0,0,3.5,3.4,4,4,0,0,0,3.3-1.7v1.5h1.5v-7a4.5,4.5,0,0,0-1-3A4.33,4.33,0,0,0,102.2,161.75Zm2.6,7.3a2.8,2.8,0,0,1-2.9,2.7,2.18,2.18,0,0,1-2.3-2.2v-.1c0-1.4,1-2.2,2.7-2.2a7.46,7.46,0,0,1,2.6.4v1.4ZM60.6,134H59v3.2H57.7v1.4H59v7a2.47,2.47,0,0,0,2.7,2.7,2.93,2.93,0,0,0,1.6-.4v-1.4a3.45,3.45,0,0,1-1.3.3,1.33,1.33,0,0,1-1.5-1.5v-6.7h2.8v-1.4H60.5V134Zm29.1-42.6-3.2-9.5H84.7L89,93.65h1.5l4.3-11.8H93ZM102.6,137a6.82,6.82,0,0,0-3.4.9l.5,1.3a5.55,5.55,0,0,1,2.8-.7,2.39,2.39,0,0,1,2.7,2.7v.5a9.82,9.82,0,0,0-2.8-.4c-2.5,0-4,1.4-4,3.5v.1a3.39,3.39,0,0,0,3.5,3.4,4,4,0,0,0,3.3-1.7v1.5h1.5v-7a4.7,4.7,0,0,0-1-3A4.08,4.08,0,0,0,102.6,137Zm2.6,7.2a2.8,2.8,0,0,1-2.9,2.7,2.18,2.18,0,0,1-2.3-2.2c0-1.4,1-2.2,2.7-2.2a7.46,7.46,0,0,1,2.6.4v1.3Zm-16.8,2.4-.9-1a4,4,0,0,1-2.8,1.2h-.3c-.2,0-.4-.1-.6-.1s-.3-.1-.5-.2a2.09,2.09,0,0,1-.6-.4l-.4-.4c-.1-.2-.3-.4-.4-.6a4.88,4.88,0,0,1-.3-.7c-.1-.3-.1-.5-.2-.8a.76.76,0,0,0-.1-.4h7.3v-.6c0-3.4-1.7-5.6-4.4-5.6s-4.5,2.4-4.5,5.7a6,6,0,0,0,1.4,4.1,4.48,4.48,0,0,0,3.4,1.5A5,5,0,0,0,88.4,146.55Zm-4.1-8.3c1.6,0,2.7,1.4,2.8,3.7H81.4C81.5,139.75,82.7,138.25,84.3,138.25Zm5.8,23.4c-2.6,0-4.5,2.4-4.5,5.7v.1a6.17,6.17,0,0,0,1.4,4.1,4.48,4.48,0,0,0,3.4,1.5,5.22,5.22,0,0,0,3.8-1.6l-.9-1a3.45,3.45,0,0,1-2.8,1.2h-.3c-.2,0-.4-.1-.6-.1s-.4-.1-.5-.2a2.09,2.09,0,0,1-.6-.4l-.4-.4c-.1-.2-.3-.4-.4-.6a4.88,4.88,0,0,1-.3-.7c-.1-.3-.1-.5-.2-.8a.76.76,0,0,0-.1-.4h7.3v-.6C94.5,163.85,92.8,161.65,90.1,161.65Zm-2.9,5.1c.1-2.2,1.3-3.7,2.9-3.7s2.7,1.4,2.8,3.7Zm39-8h-1.6V162h-1.3v1.4h1.3v7a2.47,2.47,0,0,0,2.7,2.7,2.93,2.93,0,0,0,1.6-.4v-1.4a3.45,3.45,0,0,1-1.3.3,1.33,1.33,0,0,1-1.5-1.5v-6.7h2.8V162h-2.8v-3.2Zm-68.6,2.9c-2.6,0-4.5,2.4-4.5,5.7v.1a6.17,6.17,0,0,0,1.4,4.1,4.48,4.48,0,0,0,3.4,1.5,5.22,5.22,0,0,0,3.8-1.6l-.9-1a4,4,0,0,1-2.8,1.2h-.3c-.2,0-.4-.1-.6-.1s-.3-.1-.5-.2a2.09,2.09,0,0,1-.6-.4l-.4-.4c-.1-.2-.3-.4-.4-.6a4.88,4.88,0,0,1-.3-.7c-.1-.3-.1-.5-.2-.8a.76.76,0,0,0-.1-.4H62v-.6C62,163.85,60.3,161.65,57.6,161.65Zm-2.9,5.1c.2-2.2,1.3-3.7,2.9-3.7s2.7,1.4,2.8,3.7Zm-9.1-20a5.94,5.94,0,0,0,1.3-4.1v-.2a6.48,6.48,0,0,0-1.3-4.1,4.05,4.05,0,0,0-3-1.4,4,4,0,0,0-3.5,2.2v-2H37.5v14h1.6v-5.1a4.07,4.07,0,0,0,3.5,2.1A3.75,3.75,0,0,0,45.6,146.75Zm-6.5-4.1v-.2c0-2.6,1.7-4.2,3.3-4.2s3,1.3,3,4.2v.2c0,2.9-1.5,4.2-3,4.2S39.1,145.35,39.1,142.65Zm-6,3.9-.9-1a3.78,3.78,0,0,1-2.8,1.2h-.3c-.2,0-.4-.1-.6-.1s-.3-.1-.5-.2a2.09,2.09,0,0,1-.6-.4l-.4-.4c-.1-.2-.3-.4-.4-.6a4.88,4.88,0,0,1-.3-.7c-.1-.3-.1-.5-.2-.8a.76.76,0,0,0-.1-.4h7.3v-.6c0-3.4-1.7-5.6-4.4-5.6s-4.5,2.4-4.5,5.7a6,6,0,0,0,1.4,4.1,4.48,4.48,0,0,0,3.4,1.5A5,5,0,0,0,33.1,146.55Zm-4.1-8.3c1.6,0,2.7,1.4,2.8,3.7H26.1C26.2,139.75,27.4,138.25,29,138.25Zm97.6-5.2h-1.7v1.8h1.7Zm-92.8,33.5c-1.5-.6-2.4-1.1-2.4-2a1.62,1.62,0,0,1,1.8-1.5,4.32,4.32,0,0,1,2.7,1l.7-1.2a6.37,6.37,0,0,0-3.4-1.2c-.1,0-.3.1-.4.1a1.27,1.27,0,0,0-.6.1c-.2.1-.5.1-.7.2s-.3.2-.5.3a2.18,2.18,0,0,0-.5.4c-.1.1-.2.3-.3.4a1.69,1.69,0,0,0-.2.5v.8c0,.1-.1.2-.1.3,0,1.7,1.3,2.4,3.1,3.2,1.5.6,2.3,1.1,2.3,2a1.77,1.77,0,0,1-2,1.7,4.49,4.49,0,0,1-3.1-1.3l-.8,1.1a5.78,5.78,0,0,0,3.9,1.5c2.1,0,3.6-1.3,3.6-3.2C36.9,168.05,35.5,167.35,33.8,166.55ZM126.5,148v-10.9h-1.6V148Zm-10-11.1a4,4,0,0,0-3.5,2.2v-6.2h-1.6V148H113v-1.9a4.07,4.07,0,0,0,3.5,2.1,3.89,3.89,0,0,0,3-1.4,5.94,5.94,0,0,0,1.3-4.1v-.2a6.48,6.48,0,0,0-1.3-4.1A3.69,3.69,0,0,0,116.5,136.85Zm2.8,5.8c0,2.9-1.5,4.2-3.1,4.2s-3.3-1.4-3.3-4.1v-.2c0-2.6,1.7-4.2,3.3-4.2s3.1,1.3,3.1,4.2Zm-74.2,19c-2.6,0-4.5,2.4-4.5,5.7v.1a6.17,6.17,0,0,0,1.4,4.1,4.48,4.48,0,0,0,3.4,1.5,5.22,5.22,0,0,0,3.8-1.6l-.9-1a3.45,3.45,0,0,1-2.8,1.2h-.3c-.2,0-.4-.1-.6-.1s-.3-.1-.5-.2a2.09,2.09,0,0,1-.6-.4l-.4-.4c-.1-.2-.3-.4-.4-.6a4.88,4.88,0,0,1-.3-.7c-.1-.3-.1-.5-.2-.8a.76.76,0,0,0-.1-.4h7.3v-.6C49.4,163.85,47.7,161.65,45.1,161.65Zm-3,5.1c.1-2.2,1.3-3.7,2.9-3.7s2.7,1.4,2.8,3.7Zm15.5-75.4v2.2h1.7V77.25H57.6v6.6a4.42,4.42,0,0,0-3.8-2.3,4.07,4.07,0,0,0-3.2,1.5,6.4,6.4,0,0,0-1.4,4.5v.2c0,4.1,2.4,6,4.7,6A4.3,4.3,0,0,0,57.6,91.35Zm-6.8-3.6v-.2c0-2.7,1.3-4.5,3.3-4.5,1.7,0,3.5,1.6,3.5,4.5v.2c0,2.9-1.8,4.5-3.5,4.5C52.6,92.25,50.8,90.85,50.8,87.75Zm76.6-9.4h-1.7v3.4h-1.4v1.5h1.4v7.5a2.59,2.59,0,0,0,2.9,2.9,3.92,3.92,0,0,0,1.8-.4v-1.5a3.53,3.53,0,0,1-1.4.3,1.39,1.39,0,0,1-1.6-1.6v-7.2h3v-1.4h-3Z"/><path d="M14.9,33.4H13.5a4.28,4.28,0,0,1-2.2-.6,2.4,2.4,0,0,1-1-1,11.11,11.11,0,0,1-.3-3.3V18.2h6a5.67,5.67,0,0,1,2.5.4,3.25,3.25,0,0,1,1.3,1.3,6.35,6.35,0,0,1,.5,2.8v.2h1.2V11.2H20.2v.1c-.2,1.8-.6,3-1.3,3.6a4.14,4.14,0,0,1-3,.9h-6V2.9h7.3a12.72,12.72,0,0,1,3.9.5,5.11,5.11,0,0,1,2.1,1.5,8.34,8.34,0,0,1,1.5,3.4v.1h1.2L25.6.7H0V2H1.4a4.28,4.28,0,0,1,2.2.6,2.4,2.4,0,0,1,1,1,11.11,11.11,0,0,1,.3,3.3V28.6c0,2-.2,3.2-.6,3.7a3.43,3.43,0,0,1-2.9,1.2H0v1.3H14.9Zm75.8,0h-.2a7.34,7.34,0,0,1-3.1-.7,1.55,1.55,0,0,1-.7-1.2,9.84,9.84,0,0,1,.8-2.9l2.3-5.2h12.9l2,4.7a9.09,9.09,0,0,1,1,3.4,1.31,1.31,0,0,1-.7,1.2,3.93,3.93,0,0,1-2.6.6h-.2v1.2h13.7V33.3h-.2a4.82,4.82,0,0,1-3.1-1.1c-.8-.6-1.6-2.1-2.5-4.3L98.4.1V0H97.3l-12,27.7a15.73,15.73,0,0,1-2.8,4.8,5.15,5.15,0,0,1-2.7.9h-.1v1.2h11ZM96.5,8.3l5.5,13H90.8Zm28.2-6.1a6.48,6.48,0,0,1,2.2,1,14.51,14.51,0,0,1,2.2,2.2V28.7a8.17,8.17,0,0,1-.5,3.5,3.31,3.31,0,0,1-2.9,1.2h-1.3v1.3h12.1V33.4h-1.4a3.43,3.43,0,0,1-2.8-1c-.4-.5-.6-1.7-.6-3.7V8.5l22.1,26.7.1.1h1.2V6.7a8.17,8.17,0,0,1,.5-3.5A3.31,3.31,0,0,1,158.5,2h1.4V.7H147.5V2h1.3a3.43,3.43,0,0,1,2.8,1c.4.5.7,1.7.7,3.7V25.6L131.8.8l-.1-.1h-9.5V2h.2A11.32,11.32,0,0,1,124.7,2.2ZM53.6,33.4H52.1a3.34,3.34,0,0,1-2.7-1c-.4-.5-.7-1.8-.7-3.8V19H52L63.5,34.6l.1.1h9.3V33.5h-.2a10.38,10.38,0,0,1-4.4-1.4,17.9,17.9,0,0,1-4.1-4.4l-6.8-9.4a11.12,11.12,0,0,0,6.1-3.2,7.88,7.88,0,0,0,2.1-5.5,7.57,7.57,0,0,0-1.8-5.1,9.21,9.21,0,0,0-4.4-2.9,30.59,30.59,0,0,0-8-.8H38.8V2.1h1.4a3.56,3.56,0,0,1,2.8,1c.3.3.7,1.3.7,3.8V28.6c0,2.3-.3,3.2-.5,3.5a3.13,3.13,0,0,1-2.9,1.3H38.9v1.3H53.8V33.4Zm-4.8-30A20.39,20.39,0,0,1,52.6,3a6.71,6.71,0,0,1,5.1,1.9,6.63,6.63,0,0,1,1.9,5,6.59,6.59,0,0,1-2.4,5.2c-1.6,1.4-4,2-7.2,2H48.7V3.4ZM197.9,25.3v.1c-.9,2.8-1.9,4.6-3,5.5a7.42,7.42,0,0,1-4.8,1.3H176.5L198.6.9l.2-.3H173.2l-.7,8.6v.2h1.3V9.3a13.29,13.29,0,0,1,1.1-4.1,4,4,0,0,1,1.8-1.6,9.08,9.08,0,0,1,3.8-.6H191L169.5,33.5v1.1h27.9l1.7-9.2-1.2-.1Z"/></g></g></svg>