<svg xmlns="http://www.w3.org/2000/svg" width="81.812" height="90.902" viewBox="0 0 81.812 90.902">
  <g id="グループ_546" data-name="グループ 546" transform="translate(-135 -241.89)">
    <path id="パス_323" data-name="パス 323" d="M363,453.465a7.575,7.575,0,1,0,7.575-7.575A7.574,7.574,0,0,0,363,453.465Zm12.12,0a4.545,4.545,0,1,1-4.545-4.545,4.545,4.545,0,0,1,4.545,4.545Zm0,0" transform="translate(-170.429 -152.489)" fill="#b5c1de"/>
    <path id="パス_324" data-name="パス 324" d="M205.419,322.656c4.606-5.939,11.393-15.71,11.393-21.68A16.7,16.7,0,0,0,203.177,284.6V250.98h3.03a1.516,1.516,0,0,0,1.515-1.515v-6.06a1.516,1.516,0,0,0-1.515-1.515H136.515A1.516,1.516,0,0,0,135,243.405v6.06a1.516,1.516,0,0,0,1.515,1.515h3.03v60.6h-3.03A1.516,1.516,0,0,0,135,313.1v4.545a1.516,1.516,0,0,0,1.515,1.515h55.738c.91,1.258,1.8,2.439,2.622,3.5-3.651.7-6.848,2.212-6.848,4.833,0,3.636,6.287,5.3,12.12,5.3s12.12-1.667,12.12-5.3c0-2.621-3.2-4.136-6.848-4.833ZM138.03,247.95v-3.03h66.662v3.03ZM195.6,272.191h-9.09A1.516,1.516,0,0,0,185,273.706v10.605h-1.515v3.03h7.12a16.629,16.629,0,0,0-7.12,13.635c0,2.923,1.636,6.758,3.833,10.605h-6.863v-7.575a9.09,9.09,0,1,0-18.18,0v7.575h-19.7v-60.6h57.571v33.331a16.711,16.711,0,0,0-3.03.288V273.706a1.516,1.516,0,0,0-1.515-1.515Zm-1.515,3.03v9.09h-6.06v-9.09Zm-16.665,28.786v7.575H165.3v-7.575a6.06,6.06,0,1,1,12.12,0Zm-39.391,12.12v-1.515h51.118c.334.515.666,1.015,1,1.515Zm48.481-15.15a13.635,13.635,0,0,1,27.271,0c0,5.863-8.984,17.832-13.635,23.423-4.652-5.591-13.635-17.56-13.635-23.423Zm13.635,28.786c-5.817,0-8.909-1.667-9.09-2.242.136-.469,2.075-1.667,6-2.106,1.075,1.318,1.818,2.166,1.954,2.318a1.515,1.515,0,0,0,2.273,0c.136-.152.879-1,1.954-2.318,3.925.439,5.864,1.637,6,2.045-.182.636-3.273,2.3-9.09,2.3Zm0,0" transform="translate(0 0)" fill="#b5c1de"/>
    <path id="パス_325" data-name="パス 325" d="M340.635,302.01V291.405a1.516,1.516,0,0,0-1.515-1.515h-9.09a1.516,1.516,0,0,0-1.515,1.515V302.01H327v3.03h15.15v-3.03Zm-3.03,0h-6.06v-9.09h6.06Zm0,0" transform="translate(-143.519 -35.88)" fill="#b5c1de"/>
    <path id="パス_326" data-name="パス 326" d="M262.635,302.01V291.405a1.516,1.516,0,0,0-1.515-1.515h-9.09a1.516,1.516,0,0,0-1.515,1.515V302.01H249v3.03h15.15v-3.03Zm-3.03,0h-6.06v-9.09h6.06Zm0,0" transform="translate(-85.214 -35.88)" fill="#b5c1de"/>
    <path id="パス_327" data-name="パス 327" d="M184.635,302.01V291.405a1.516,1.516,0,0,0-1.515-1.515h-9.09a1.516,1.516,0,0,0-1.515,1.515V302.01H171v3.03h15.15v-3.03Zm-3.03,0h-6.06v-9.09h6.06Zm0,0" transform="translate(-26.91 -35.88)" fill="#b5c1de"/>
    <path id="パス_328" data-name="パス 328" d="M184.635,374.01V363.405a1.516,1.516,0,0,0-1.515-1.515h-9.09a1.516,1.516,0,0,0-1.515,1.515V374.01H171v3.03h15.15v-3.03Zm-3.03,0h-6.06v-9.09h6.06Zm0,0" transform="translate(-26.91 -89.699)" fill="#b5c1de"/>
    <path id="パス_329" data-name="パス 329" d="M262.635,374.01V363.405a1.516,1.516,0,0,0-1.515-1.515h-9.09a1.516,1.516,0,0,0-1.515,1.515V374.01H249v3.03h15.15v-3.03Zm-3.03,0h-6.06v-9.09h6.06Zm0,0" transform="translate(-85.214 -89.699)" fill="#b5c1de"/>
  </g>
</svg>
