<svg xmlns="http://www.w3.org/2000/svg" width="90.938" height="90.95" viewBox="0 0 90.938 90.95">
  <g id="グループ_545" data-name="グループ 545" transform="translate(-117.022 -240.89)">
    <g id="グループ_544" data-name="グループ 544" transform="translate(117.022 240.89)">
      <path id="パス_312" data-name="パス 312" d="M192.194,259.8a24.233,24.233,0,0,0-44.636-6.778h-.226A19.738,19.738,0,0,0,127.966,269.2a16.764,16.764,0,0,0-10.874,17.238,16.383,16.383,0,0,0,8.084,12.609l1.554-2.6a13.384,13.384,0,0,1-6.619-10.287,13.71,13.71,0,0,1,9.639-14.362,1.515,1.515,0,0,0,1.061-1.253,16.7,16.7,0,0,1,16.521-14.485c.236,0,.47.017.7.032l.3.02a1.514,1.514,0,0,0,1.429-.807,21.2,21.2,0,0,1,39.643,6.024,1.514,1.514,0,0,0,1.171,1.213,18.219,18.219,0,0,1,14.263,19.541,17.708,17.708,0,0,1-6.908,12.4l1.858,2.393a20.711,20.711,0,0,0,8.068-14.508,21.259,21.259,0,0,0-15.669-22.56Zm0,0" transform="translate(-117.022 -240.89)" fill="#b5c1de"/>
    </g>
    <path id="パス_313" data-name="パス 313" d="M262.653,516.937h-3.031a10.621,10.621,0,0,0-10.609,10.609v10.609h24.25V527.546a10.622,10.622,0,0,0-10.609-10.609Zm7.578,18.188H252.043v-7.578a7.587,7.587,0,0,1,7.578-7.578h3.031a7.588,7.588,0,0,1,7.578,7.578Zm0,0" transform="translate(-98.648 -206.316)" fill="#b5c1de"/>
    <path id="パス_314" data-name="パス 314" d="M274.59,450.937a7.578,7.578,0,1,0,7.578,7.578,7.578,7.578,0,0,0-7.578-7.578Zm0,12.125a4.547,4.547,0,1,1,4.547-4.547,4.547,4.547,0,0,1-4.547,4.547Zm0,0" transform="translate(-112.101 -156.988)" fill="#b5c1de"/>
    <path id="パス_315" data-name="パス 315" d="M154.653,516.937h-3.031a10.621,10.621,0,0,0-10.609,10.609v10.609h24.25V527.546a10.622,10.622,0,0,0-10.609-10.609Zm7.578,18.188H144.043v-7.578a7.587,7.587,0,0,1,7.578-7.578h3.031a7.588,7.588,0,0,1,7.578,7.578Zm0,0" transform="translate(-17.93 -206.316)" fill="#b5c1de"/>
    <path id="パス_316" data-name="パス 316" d="M166.59,450.937a7.578,7.578,0,1,0,7.578,7.578,7.578,7.578,0,0,0-7.578-7.578Zm0,12.125a4.547,4.547,0,1,1,4.547-4.547,4.547,4.547,0,0,1-4.547,4.547Zm0,0" transform="translate(-31.383 -156.988)" fill="#b5c1de"/>
    <path id="パス_317" data-name="パス 317" d="M370.653,516.937h-3.031a10.621,10.621,0,0,0-10.609,10.609v10.609h24.25V527.546a10.622,10.622,0,0,0-10.609-10.609Zm7.578,18.188H360.043v-7.578a7.587,7.587,0,0,1,7.578-7.578h3.031a7.588,7.588,0,0,1,7.578,7.578Zm0,0" transform="translate(-179.367 -206.316)" fill="#b5c1de"/>
    <path id="パス_318" data-name="パス 318" d="M382.59,450.937a7.578,7.578,0,1,0,7.578,7.578,7.578,7.578,0,0,0-7.578-7.578Zm0,12.125a4.547,4.547,0,1,1,4.547-4.547,4.547,4.547,0,0,1-4.547,4.547Zm0,0" transform="translate(-192.82 -156.988)" fill="#b5c1de"/>
    <path id="パス_319" data-name="パス 319" d="M272.359,314.526a12.134,12.134,0,1,0-15.8,15.781v.88h-3.031v3.031h3.031v3.031a1.516,1.516,0,0,0,1.516,1.516h1.516v1.516h3.031v-1.516h1.516a1.516,1.516,0,0,0,1.516-1.516v-3.031h3.031v-3.031h-3.031v-.88a12.125,12.125,0,0,0,6.709-15.781Zm-9.739,21.208h-3.031v-1.516h3.031Zm1.083-7.955a1.513,1.513,0,0,0-1.083,1.453v1.955h-3.031v-1.955a1.516,1.516,0,0,0-1.084-1.453,9.093,9.093,0,1,1,5.2,0Zm0,0" transform="translate(-98.616 -49.363)" fill="#b5c1de"/>
    <path id="パス_320" data-name="パス 320" d="M267.012,332.515h3.031a4.547,4.547,0,0,1,4.547-4.547v-3.031a7.587,7.587,0,0,0-7.578,7.578Zm0,0" transform="translate(-112.101 -62.816)" fill="#b5c1de"/>
    <rect id="長方形_411" data-name="長方形 411" width="3.031" height="3.031" transform="translate(160.973 253.027)" fill="#b5c1de"/>
    <path id="パス_321" data-name="パス 321" d="M330.941,306.174l2.144-2.143,2.143,2.143-2.143,2.143Zm0,0" transform="translate(-159.882 -47.191)" fill="#b5c1de"/>
    <rect id="長方形_412" data-name="長方形 412" width="3.031" height="3.031" transform="translate(176.129 268.183)" fill="#b5c1de"/>
    <path id="パス_322" data-name="パス 322" d="M246.1,306.162l2.143-2.143,2.143,2.144-2.143,2.143Zm0,0" transform="translate(-96.47 -47.182)" fill="#b5c1de"/>
    <rect id="長方形_413" data-name="長方形 413" width="3.031" height="3.031" transform="translate(145.817 268.183)" fill="#b5c1de"/>
  </g>
</svg>
