<svg xmlns="http://www.w3.org/2000/svg" width="91.041" height="90.847" viewBox="0 0 91.041 90.847">
  <g id="グループ_547" data-name="グループ 547" transform="translate(-49 -173.89)">
    <path id="パス_330" data-name="パス 330" d="M161,508.835v8.81h5.874v-2.937h-2.937v-5.874Zm0,0" transform="translate(-91.442 -273.466)" fill="#b5c1de"/>
    <path id="パス_331" data-name="パス 331" d="M123.534,460.835a16.186,16.186,0,0,0-10.222,3.649l1.861,2.271a13.232,13.232,0,0,1,6.892-2.891v2.844H125v-2.851a13.235,13.235,0,0,1,11.66,11.661h-2.85v2.937h2.844a13.218,13.218,0,0,1-2.892,6.891l2.274,1.862a16.151,16.151,0,0,0-12.505-26.374Zm0,0" transform="translate(-52.508 -234.276)" fill="#b5c1de"/>
    <path id="パス_332" data-name="パス 332" d="M98.621,516.492v-2.844H95.684v2.85a13.233,13.233,0,0,1-11.66-11.661h2.85V501.9H84.029a13.221,13.221,0,0,1,2.892-6.892l-2.274-1.861a16.15,16.15,0,0,0,22.727,22.724l-1.861-2.271a13.233,13.233,0,0,1-6.892,2.891Zm0,0" transform="translate(-26.126 -260.658)" fill="#b5c1de"/>
    <path id="パス_333" data-name="パス 333" d="M140.041,192.786h-8.81v-7.342h-7.342V173.89l-5.874,3.915-5.874-3.915v11.554H109.2a13.219,13.219,0,0,0-11.747,7.189,13.219,13.219,0,0,0-11.747-7.189H63.684v7.342h-8.81v35a21.995,21.995,0,1,0,33.732,28.14h17.662V257.4a7.342,7.342,0,1,0,14.684,0v-1.468h19.089Zm-24.963-13.41,2.937,1.959,2.937-1.959v6.068h-5.874Zm-5.874,9h19.089v55.8h-7.342V209.961l-3.619-5.428h8.025V201.6h-9.982l-1.765-2.648-1.765,2.648H104.8v2.937h5.088l-3.619,5.428V244.18H98.926v-45.52A10.291,10.291,0,0,1,109.2,188.38Zm2.937,42.584v17.621H109.2v-36.71h2.937v16.152h2.937V211.875h2.937v36.71h-2.937V230.964Zm1.468-26.721,3.13,4.695h-6.259ZM85.71,188.38a10.291,10.291,0,0,1,10.279,10.279v45.52H92.978c.032-.487.075-.972.075-1.468A21.913,21.913,0,0,0,87.4,228.027h2.718V213.343H69.558v7.417a21.976,21.976,0,0,0-2.937.37V188.38Zm1.468,36.71H84.186a21.862,21.862,0,0,0-11.691-4.331v-4.48H87.178ZM63.684,195.722V221.97a21.957,21.957,0,0,0-5.874,3.161V195.722ZM71.026,261.8a19.089,19.089,0,1,1,19.089-19.089A19.111,19.111,0,0,1,71.026,261.8Zm19.465-8.81a21.805,21.805,0,0,0,2.116-5.874h13.661v5.874Zm23.119,8.81A4.411,4.411,0,0,1,109.2,257.4v-5.874h8.81V257.4a4.411,4.411,0,0,1-4.405,4.405Zm23.494-8.81H120.952v-5.874H131.23V195.722H137.1Zm0,0" fill="#b5c1de"/>
    <rect id="長方形_414" data-name="長方形 414" width="2.937" height="2.937" transform="translate(69.558 195.722)" fill="#b5c1de"/>
    <rect id="長方形_415" data-name="長方形 415" width="14.684" height="2.937" transform="translate(75.431 195.722)" fill="#b5c1de"/>
    <rect id="長方形_416" data-name="長方形 416" width="2.937" height="2.937" transform="translate(69.558 201.596)" fill="#b5c1de"/>
    <rect id="長方形_417" data-name="長方形 417" width="14.684" height="2.937" transform="translate(75.431 201.596)" fill="#b5c1de"/>
    <rect id="長方形_418" data-name="長方形 418" width="20.558" height="2.937" transform="translate(69.558 207.47)" fill="#b5c1de"/>
    <rect id="長方形_419" data-name="長方形 419" width="20.558" height="2.937" transform="translate(104.799 195.722)" fill="#b5c1de"/>
  </g>
</svg>
