<svg xmlns="http://www.w3.org/2000/svg" width="90.902" height="90.902" viewBox="0 0 90.902 90.902">
  <g id="グループ_548" data-name="グループ 548" transform="translate(-117 -241.89)">
    <path id="パス_334" data-name="パス 334" d="M160.936,260.07H144.271V243.405a1.515,1.515,0,0,0-1.515-1.515H118.515A1.515,1.515,0,0,0,117,243.405v42.421a1.515,1.515,0,0,0,1.515,1.515h42.421a1.515,1.515,0,0,0,1.515-1.515V261.585a1.515,1.515,0,0,0-1.515-1.515Zm-27.271,24.241h-6.06v-9.09h6.06Zm7.575-22.726v22.726H136.7v-9.09h1.515v-3.03H123.06v3.03h1.515v9.09H120.03V244.92h21.211Zm18.18,22.726h-15.15V263.1h15.15Zm0,0" transform="translate(0 0)" fill="#b5c1de"/>
    <path id="パス_335" data-name="パス 335" d="M305.056,435.586H288.391v-18.18a1.515,1.515,0,0,0-1.515-1.515H268.7a1.515,1.515,0,0,0-1.515,1.515v18.18H250.515A1.515,1.515,0,0,0,249,437.1v24.241a1.515,1.515,0,0,0,1.515,1.515h54.541a1.515,1.515,0,0,0,1.515-1.515V437.1a1.515,1.515,0,0,0-1.515-1.515ZM267.18,459.826H252.03V438.616h15.15Zm12.12,0h-3.03v-6.06h3.03Zm6.06-22.726v22.726h-3.03v-7.575a1.515,1.515,0,0,0-1.515-1.515h-6.06a1.515,1.515,0,0,0-1.515,1.515v7.575h-3.03V418.92h15.15Zm18.18,22.726h-15.15V438.616h15.15Zm0,0" transform="translate(-98.669 -130.064)" fill="#b5c1de"/>
    <rect id="長方形_420" data-name="長方形 420" width="3" height="3" transform="translate(122.603 247.792)" fill="#b5c1de"/>
    <rect id="長方形_421" data-name="長方形 421" width="3" height="3" transform="translate(129.603 247.792)" fill="#b5c1de"/>
    <rect id="長方形_422" data-name="長方形 422" width="3" height="3" transform="translate(135.603 247.792)" fill="#b5c1de"/>
    <rect id="長方形_423" data-name="長方形 423" width="3" height="3" transform="translate(122.603 253.792)" fill="#b5c1de"/>
    <rect id="長方形_424" data-name="長方形 424" width="3" height="3" transform="translate(129.603 253.792)" fill="#b5c1de"/>
    <rect id="長方形_425" data-name="長方形 425" width="3" height="3" transform="translate(135.603 253.792)" fill="#b5c1de"/>
    <rect id="長方形_426" data-name="長方形 426" width="3" height="2" transform="translate(122.603 260.792)" fill="#b5c1de"/>
    <rect id="長方形_427" data-name="長方形 427" width="3" height="2" transform="translate(129.603 260.792)" fill="#b5c1de"/>
    <rect id="長方形_428" data-name="長方形 428" width="3" height="2" transform="translate(135.603 260.792)" fill="#b5c1de"/>
    <rect id="長方形_429" data-name="長方形 429" width="4" height="3" transform="translate(146.603 265.792)" fill="#b5c1de"/>
    <rect id="長方形_430" data-name="長方形 430" width="3" height="3" transform="translate(153.603 265.792)" fill="#b5c1de"/>
    <rect id="長方形_431" data-name="長方形 431" width="4" height="3" transform="translate(146.603 271.792)" fill="#b5c1de"/>
    <rect id="長方形_432" data-name="長方形 432" width="3" height="3" transform="translate(153.603 271.792)" fill="#b5c1de"/>
    <rect id="長方形_433" data-name="長方形 433" width="3" height="3" transform="translate(174.603 291.792)" fill="#b5c1de"/>
    <rect id="長方形_434" data-name="長方形 434" width="3" height="3" transform="translate(180.603 291.792)" fill="#b5c1de"/>
    <rect id="長方形_435" data-name="長方形 435" width="3" height="3" transform="translate(174.603 297.792)" fill="#b5c1de"/>
    <rect id="長方形_436" data-name="長方形 436" width="3" height="3" transform="translate(180.603 297.792)" fill="#b5c1de"/>
    <rect id="長方形_437" data-name="長方形 437" width="3" height="3" transform="translate(174.603 303.792)" fill="#b5c1de"/>
    <rect id="長方形_438" data-name="長方形 438" width="3" height="3" transform="translate(180.603 303.792)" fill="#b5c1de"/>
    <rect id="長方形_439" data-name="長方形 439" width="3" height="4" transform="translate(174.603 309.792)" fill="#b5c1de"/>
    <rect id="長方形_440" data-name="長方形 440" width="3" height="4" transform="translate(180.603 309.792)" fill="#b5c1de"/>
    <rect id="長方形_441" data-name="長方形 441" width="3" height="3" transform="translate(192.603 311.792)" fill="#b5c1de"/>
    <rect id="長方形_442" data-name="長方形 442" width="3" height="3" transform="translate(198.603 311.792)" fill="#b5c1de"/>
    <rect id="長方形_443" data-name="長方形 443" width="3" height="3" transform="translate(192.603 317.792)" fill="#b5c1de"/>
    <rect id="長方形_444" data-name="長方形 444" width="3" height="3" transform="translate(198.603 317.792)" fill="#b5c1de"/>
    <rect id="長方形_445" data-name="長方形 445" width="3" height="3" transform="translate(156.603 311.792)" fill="#b5c1de"/>
    <rect id="長方形_446" data-name="長方形 446" width="3" height="3" transform="translate(162.603 311.792)" fill="#b5c1de"/>
    <rect id="長方形_447" data-name="長方形 447" width="3" height="3" transform="translate(156.603 317.792)" fill="#b5c1de"/>
    <rect id="長方形_448" data-name="長方形 448" width="3" height="3" transform="translate(162.603 317.792)" fill="#b5c1de"/>
    <rect id="長方形_449" data-name="長方形 449" width="4" height="3" transform="translate(146.603 250.792)" fill="#b5c1de"/>
    <rect id="長方形_450" data-name="長方形 450" width="3" height="3" transform="translate(153.603 250.792)" fill="#b5c1de"/>
    <rect id="長方形_451" data-name="長方形 451" width="3" height="3" transform="translate(159.603 250.792)" fill="#b5c1de"/>
    <rect id="長方形_452" data-name="長方形 452" width="3" height="3" transform="translate(165.603 250.792)" fill="#b5c1de"/>
    <rect id="長方形_453" data-name="長方形 453" width="3" height="3" transform="translate(171.603 250.792)" fill="#b5c1de"/>
    <rect id="長方形_454" data-name="長方形 454" width="3" height="3" transform="translate(177.603 250.792)" fill="#b5c1de"/>
    <rect id="長方形_455" data-name="長方形 455" width="3" height="3" transform="translate(183.603 250.792)" fill="#b5c1de"/>
    <rect id="長方形_456" data-name="長方形 456" width="3" height="3" transform="translate(189.603 250.792)" fill="#b5c1de"/>
    <rect id="長方形_457" data-name="長方形 457" width="3" height="3" transform="translate(195.603 250.792)" fill="#b5c1de"/>
    <rect id="長方形_458" data-name="長方形 458" width="3" height="4" transform="translate(195.603 256.792)" fill="#b5c1de"/>
    <rect id="長方形_459" data-name="長方形 459" width="3" height="3" transform="translate(195.603 262.792)" fill="#b5c1de"/>
    <rect id="長方形_460" data-name="長方形 460" width="3" height="3" transform="translate(195.603 268.792)" fill="#b5c1de"/>
    <rect id="長方形_461" data-name="長方形 461" width="3" height="3" transform="translate(195.603 274.792)" fill="#b5c1de"/>
    <rect id="長方形_462" data-name="長方形 462" width="3" height="3" transform="translate(195.603 281.792)" fill="#b5c1de"/>
    <rect id="長方形_463" data-name="長方形 463" width="3" height="3" transform="translate(195.603 287.792)" fill="#b5c1de"/>
    <rect id="長方形_464" data-name="長方形 464" width="3" height="2" transform="translate(195.603 293.792)" fill="#b5c1de"/>
    <rect id="長方形_465" data-name="長方形 465" width="3" height="4" transform="translate(195.603 298.792)" fill="#b5c1de"/>
    <rect id="長方形_466" data-name="長方形 466" width="4" height="3" transform="translate(125.603 290.792)" fill="#b5c1de"/>
    <rect id="長方形_467" data-name="長方形 467" width="4" height="3" transform="translate(125.603 295.792)" fill="#b5c1de"/>
    <rect id="長方形_468" data-name="長方形 468" width="4" height="3" transform="translate(125.603 302.792)" fill="#b5c1de"/>
    <rect id="長方形_469" data-name="長方形 469" width="4" height="3" transform="translate(125.603 308.792)" fill="#b5c1de"/>
    <rect id="長方形_470" data-name="長方形 470" width="4" height="3" transform="translate(125.603 314.792)" fill="#b5c1de"/>
    <rect id="長方形_471" data-name="長方形 471" width="4" height="3" transform="translate(125.603 320.792)" fill="#b5c1de"/>
    <rect id="長方形_472" data-name="長方形 472" width="3" height="3" transform="translate(132.603 320.792)" fill="#b5c1de"/>
    <rect id="長方形_473" data-name="長方形 473" width="3" height="3" transform="translate(138.603 320.792)" fill="#b5c1de"/>
    <rect id="長方形_474" data-name="長方形 474" width="3" height="3" transform="translate(143.603 320.792)" fill="#b5c1de"/>
  </g>
</svg>
