<svg xmlns="http://www.w3.org/2000/svg" width="91.017" height="91" viewBox="0 0 91.017 91">
  <g id="グループ_555" data-name="グループ 555" transform="translate(-40.999 -165.929)">
    <rect id="長方形_477" data-name="長方形 477" width="17.065" height="2.844" transform="translate(48.112 170.183)" fill="#b5c1de"/>
    <rect id="長方形_478" data-name="長方形 478" width="8.532" height="2.844" transform="translate(48.112 175.871)" fill="#b5c1de"/>
    <rect id="長方形_479" data-name="長方形 479" width="17" height="2" transform="translate(107.999 170.929)" fill="#b5c1de"/>
    <rect id="長方形_480" data-name="長方形 480" width="9" height="3" transform="translate(115.999 175.929)" fill="#b5c1de"/>
    <rect id="長方形_481" data-name="長方形 481" width="3" height="3" transform="translate(84.999 165.929)" fill="#b5c1de"/>
    <path id="パス_345" data-name="パス 345" d="M223.465,190.381l2.011-2.011,2.011,2.011-2.011,2.011Zm0,0" transform="translate(-150.029 -18.461)" fill="#b5c1de"/>
    <rect id="長方形_482" data-name="長方形 482" width="3" height="3" transform="translate(69.999 181.929)" fill="#b5c1de"/>
    <rect id="長方形_483" data-name="長方形 483" width="3" height="3" transform="translate(99.999 181.929)" fill="#b5c1de"/>
    <g id="グループ_553" data-name="グループ 553" transform="translate(41.001 169.909)">
      <path id="パス_346" data-name="パス 346" d="M347.914,190.381l2.011-2.011,2.012,2.011-2.012,2.012Zm0,0" transform="translate(-293.357 -188.37)" fill="#b5c1de"/>
      <path id="パス_347" data-name="パス 347" d="M128.8,469.579l-8.151-2.035v-4.258l1.421-1.083v-9.191a7.11,7.11,0,0,0-14.221,0V462.2l1.422,1.083v4.258l-8.187,2.043c-.121.034-.208.094-.32.134a4.077,4.077,0,0,0-.413-.142l-8.145-2.035v-4.258l1.422-1.083V450.168a4.266,4.266,0,0,0-4.266-4.266H85.271a8.919,8.919,0,0,0-8.665,6.764l-.442,1.768h3.244V462.2l1.422,1.083v4.258l-8.146,2.036a4.25,4.25,0,0,0-3.065,3.006,4.251,4.251,0,0,0-1.038-.284l-6.407-.833a1.408,1.408,0,0,1-1.253-1.392h8.532V458.7a12.8,12.8,0,0,0-25.6,0v11.376h8.532a1.408,1.408,0,0,1-1.253,1.387l-6.407.834a4.275,4.275,0,0,0-3.716,4.23v10.613h2.844V476.529a1.421,1.421,0,0,1,1.238-1.41l4.45-.578v3.526l5.688,2.844v6.232h2.844V480.91l5.689-2.844V474.54l4.449.578a1.422,1.422,0,0,1,1.239,1.41v10.613H72.3V484.3h2.844v2.844h2.844v-9.954H75.142v4.266H72.3V473.72a1.422,1.422,0,0,1,1.078-1.381l7.9-1.978A4.9,4.9,0,0,0,85.1,472.8v5.807H87.94V472.8a4.9,4.9,0,0,0,3.819-2.442l7.9,1.976a1.423,1.423,0,0,1,1.078,1.38v7.737H97.9v-4.266H95.051v9.954H97.9V484.3h2.844v2.844h2.844V473.72a4.275,4.275,0,0,0-.38-1.731l6.514-1.628a4.9,4.9,0,0,0,3.82,2.442v5.807h2.844V472.8a4.9,4.9,0,0,0,3.819-2.442l7.913,1.976a1.411,1.411,0,0,1,1.067,1.378v7.74h-2.844v-4.266h-2.844v9.954h2.844V484.3h2.844v2.844h2.844V473.717a4.248,4.248,0,0,0-3.225-4.138Zm-67.878-5.97a4.283,4.283,0,0,1-2.464,3.867l-1.8.84-1.8-.84a4.283,4.283,0,0,1-2.463-3.867v-4.317l8.533,2.133Zm-10.365,3.624H46.7V458.7a9.955,9.955,0,0,1,19.909,0v8.533H62.752a7.087,7.087,0,0,0,1.013-3.624V459.2l-14.221-3.555v7.964a7.091,7.091,0,0,0,1.012,3.624Zm10.365,9.075-4.266,2.133-4.266-2.133v-2.227a4.259,4.259,0,0,0,2.775-3.322l1.491.7,1.491-.7a4.254,4.254,0,0,0,2.775,3.322Zm28.441-7.69c-.017.252-.24,1.458-2.844,1.458s-2.828-1.219-2.844-1.422v-3.2l.467.358h4.752l.468-.358Zm1.422-15.607v7.783l-2.844,2.172H85.1l-2.844-2.172v-6.361H87.94V451.59H80.119a6.081,6.081,0,0,1,5.153-2.844h4.09a1.422,1.422,0,0,1,1.422,1.422Zm24.176-4.266a4.266,4.266,0,0,1,4,2.844H117.8a4.245,4.245,0,0,0-2.844,1.089,4.247,4.247,0,0,0-2.844-1.089h-1.161a4.266,4.266,0,0,1,4.005-2.844Zm2.844,19.872c-.017.252-.24,1.458-2.844,1.458s-2.829-1.219-2.844-1.422v-3.2l.467.358h4.753l.468-.358Zm1.422-7.821-2.844,2.169h-2.844l-2.844-2.172v-6.361h1.422a1.422,1.422,0,0,1,1.422,1.422h2.844a1.421,1.421,0,0,1,1.422-1.422h1.422Zm0,0" transform="translate(-41.012 -400.121)" fill="#b5c1de"/>
    </g>
    <rect id="長方形_484" data-name="長方形 484" width="2.844" height="7.11" transform="translate(46.69 249.819)" fill="#b5c1de"/>
    <g id="グループ_554" data-name="グループ 554" transform="translate(40.999 166.627)">
      <rect id="長方形_485" data-name="長方形 485" width="2.844" height="7.11" transform="translate(22.756 83.192)" fill="#b5c1de"/>
      <path id="パス_348" data-name="パス 348" d="M52.583,192.842a12.685,12.685,0,0,0,2.639,5.754v17.532h2.844V201.184A12.789,12.789,0,0,0,70.3,202.248,18.506,18.506,0,0,0,85.086,211.8v4.326H87.93V211.8a18.506,18.506,0,0,0,14.79-9.554A12.785,12.785,0,0,0,113.527,202v14.124h2.844V200.085a12.685,12.685,0,0,0,4.06-7.243,15.643,15.643,0,0,0,9.486-22.932l-2.463,1.422a12.8,12.8,0,0,1-8.577,18.956l-1.031.206-.1,1.047A9.938,9.938,0,0,1,102.8,199.1l-1.371-.806-.648,1.452a15.625,15.625,0,0,1-28.547,0l-.648-1.452-1.371.806a9.938,9.938,0,0,1-14.944-7.561l-.1-1.047-1.031-.206a12.8,12.8,0,0,1-8.577-18.956L43.1,169.91a15.643,15.643,0,0,0,9.486,22.932Zm0,0" transform="translate(-40.999 -169.91)" fill="#b5c1de"/>
    </g>
    <path id="パス_349" data-name="パス 349" d="M238.688,219.072V226.3h11.376v-7.225a11.377,11.377,0,1,0-11.376,0Zm8.532,4.38h-5.688v-4.266h5.688ZM244.375,200.7a8.522,8.522,0,0,1,4.693,15.643H245.8v-4.266h2.844v-2.844H240.11v2.844h2.844v4.266h-3.271a8.522,8.522,0,0,1,4.693-15.643Zm0,0" transform="translate(-157.868 -26.25)" fill="#b5c1de"/>
  </g>
</svg>
