<svg xmlns="http://www.w3.org/2000/svg" width="90.645" height="90.645" viewBox="0 0 90.645 90.645">
  <g id="グループ_552" data-name="グループ 552" transform="translate(-117 -241.89)">
    <path id="パス_336" data-name="パス 336" d="M274.6,497h-3.021a6.043,6.043,0,0,0,6.043-6.043v-3.021a6.043,6.043,0,0,0-6.043-6.043h-3.021a6.043,6.043,0,0,0-6.043,6.043v3.021A6.043,6.043,0,0,0,268.554,497h-3.021A4.532,4.532,0,0,0,261,501.53v9.065a1.511,1.511,0,0,0,1.511,1.511h15.107a1.511,1.511,0,0,0,1.511-1.511V501.53A4.532,4.532,0,0,0,274.6,497Zm-9.064-6.043v-3.021a3.021,3.021,0,0,1,3.021-3.021h3.021a3.021,3.021,0,0,1,3.021,3.021v3.021a3.021,3.021,0,0,1-3.021,3.021h-3.021a3.021,3.021,0,0,1-3.021-3.021Zm10.575,18.129H264.021V501.53a1.511,1.511,0,0,1,1.511-1.511H274.6a1.511,1.511,0,0,1,1.511,1.511Zm0,0" transform="translate(-107.742 -179.57)" fill="#b5c1de"/>
    <path id="パス_337" data-name="パス 337" d="M274.6,257h-3.021a6.043,6.043,0,0,0,6.043-6.043v-3.021a6.043,6.043,0,0,0-6.043-6.043h-3.021a6.043,6.043,0,0,0-6.043,6.043v3.021A6.043,6.043,0,0,0,268.554,257h-3.021A4.532,4.532,0,0,0,261,261.53v9.064a1.511,1.511,0,0,0,1.511,1.511h15.107a1.511,1.511,0,0,0,1.511-1.511V261.53A4.532,4.532,0,0,0,274.6,257Zm-9.064-6.043v-3.021a3.021,3.021,0,0,1,3.021-3.021h3.021a3.021,3.021,0,0,1,3.021,3.021v3.021a3.021,3.021,0,0,1-3.021,3.021h-3.021a3.021,3.021,0,0,1-3.021-3.021Zm10.575,18.129H264.021V261.53a1.511,1.511,0,0,1,1.511-1.511H274.6a1.511,1.511,0,0,1,1.511,1.511Zm0,0" transform="translate(-107.742)" fill="#b5c1de"/>
    <path id="パス_338" data-name="パス 338" d="M418.6,497h-3.021a6.043,6.043,0,0,0,6.043-6.043v-3.021a6.043,6.043,0,0,0-6.043-6.043h-3.022a6.043,6.043,0,0,0-6.043,6.043v3.021A6.043,6.043,0,0,0,412.554,497h-3.021A4.532,4.532,0,0,0,405,501.53v9.065a1.511,1.511,0,0,0,1.511,1.511h15.107a1.511,1.511,0,0,0,1.511-1.511V501.53A4.532,4.532,0,0,0,418.6,497Zm-9.064-6.043v-3.021a3.021,3.021,0,0,1,3.021-3.021h3.022a3.021,3.021,0,0,1,3.021,3.021v3.021a3.021,3.021,0,0,1-3.021,3.021h-3.022a3.021,3.021,0,0,1-3.021-3.021Zm10.575,18.129H408.021V501.53a1.511,1.511,0,0,1,1.511-1.511H418.6a1.511,1.511,0,0,1,1.511,1.511Zm0,0" transform="translate(-215.484 -179.57)" fill="#b5c1de"/>
    <path id="パス_339" data-name="パス 339" d="M130.6,497h-3.021a6.043,6.043,0,0,0,6.043-6.043v-3.021a6.043,6.043,0,0,0-6.043-6.043h-3.021a6.043,6.043,0,0,0-6.043,6.043v3.021A6.043,6.043,0,0,0,124.554,497h-3.021A4.532,4.532,0,0,0,117,501.53v9.065a1.511,1.511,0,0,0,1.511,1.511h15.107a1.511,1.511,0,0,0,1.511-1.511V501.53A4.532,4.532,0,0,0,130.6,497Zm-9.064-6.043v-3.021a3.021,3.021,0,0,1,3.021-3.021h3.021a3.021,3.021,0,0,1,3.021,3.021v3.021a3.021,3.021,0,0,1-3.021,3.021h-3.021a3.021,3.021,0,0,1-3.021-3.021Zm10.575,18.129H120.021V501.53a1.511,1.511,0,0,1,1.511-1.511H130.6a1.511,1.511,0,0,1,1.511,1.511Zm0,0" transform="translate(0 -179.57)" fill="#b5c1de"/>
    <path id="パス_340" data-name="パス 340" d="M221.026,384.465H186.279V373.89h-3.021v10.575H148.511A1.511,1.511,0,0,0,147,385.976v12.086h3.021V387.487h33.236v10.575h3.021V387.487h33.236v10.575h3.021V385.976a1.511,1.511,0,0,0-1.511-1.511Zm0,0" transform="translate(-22.446 -98.764)" fill="#b5c1de"/>
    <path id="パス_341" data-name="パス 341" d="M399.043,439.89H393v3.021h4.532v4.532h3.021V441.4a1.511,1.511,0,0,0-1.511-1.511Zm0,0" transform="translate(-206.506 -148.145)" fill="#b5c1de"/>
    <path id="パス_342" data-name="パス 342" d="M318.021,378.422V373.89H315v6.043a1.511,1.511,0,0,0,1.511,1.511h6.043v-3.021Zm0,0" transform="translate(-148.145 -98.764)" fill="#b5c1de"/>
    <path id="パス_343" data-name="パス 343" d="M172.511,439.89A1.511,1.511,0,0,0,171,441.4v6.043h3.021v-4.532h4.532V439.89Zm0,0" transform="translate(-40.403 -148.145)" fill="#b5c1de"/>
    <rect id="長方形_475" data-name="長方形 475" width="3" height="6" transform="translate(155 291.535)" fill="#b5c1de"/>
    <rect id="長方形_476" data-name="長方形 476" width="3" height="6" transform="translate(167 291.535)" fill="#b5c1de"/>
    <path id="パス_344" data-name="パス 344" d="M253.532,373.89v4.532H249v3.021h6.043a1.511,1.511,0,0,0,1.511-1.511V373.89Zm0,0" transform="translate(-98.764 -98.764)" fill="#b5c1de"/>
  </g>
</svg>
