<svg xmlns="http://www.w3.org/2000/svg" width="116.045" height="90.902" viewBox="0 0 116.045 90.902">
  <g id="グループ_558" data-name="グループ 558" transform="translate(-56.998 -233.89)">
    <path id="パス_350" data-name="パス 350" d="M88.736,273.89A7.737,7.737,0,0,0,81,281.626v40.616h3.868V281.626a3.868,3.868,0,0,1,3.868-3.868H90.67v44.484h3.868V277.758h21.275V273.89Zm0,0" transform="translate(-18.199 -30.33)" fill="#b5c1de"/>
    <rect id="長方形_486" data-name="長方形 486" width="12" height="4" transform="translate(116.998 243.792)" fill="#b5c1de"/>
    <g id="グループ_557" data-name="グループ 557" transform="translate(56.998 243.56)">
      <rect id="長方形_487" data-name="長方形 487" width="41" height="3" transform="translate(52 70.232)" fill="#b5c1de"/>
      <path id="パス_351" data-name="パス 351" d="M102.394,452.216l-.3-.151a5.316,5.316,0,0,0-5.147.194l-5.134,3.084V431.681a5.8,5.8,0,0,0-6.769-5.725,5.966,5.966,0,0,0-4.835,5.932v9.794a6.03,6.03,0,0,0-5.8,1.151,5.79,5.79,0,0,0-7.736,0c-.038-.035-.075-.068-.113-.1a5.821,5.821,0,0,0-4.722-1.306A5.966,5.966,0,0,0,57,447.361v21.068a1.934,1.934,0,0,0,1.934,1.934H89.878A1.926,1.926,0,0,0,91,470l12.112-8.647a5.352,5.352,0,0,0-.719-9.139Zm-1.53,6-11.6,8.283H60.867V447.361a2.1,2.1,0,0,1,1.6-2.112,1.934,1.934,0,0,1,2.272,1.9,1.934,1.934,0,0,0,3.868,0,1.934,1.934,0,1,1,3.868,0,1.934,1.934,0,0,0,3.868,0,1.934,1.934,0,1,1,3.868,0,1.934,1.934,0,0,0,3.868,0V431.888a2.1,2.1,0,0,1,1.6-2.112,1.934,1.934,0,0,1,2.272,1.9v27.077a1.934,1.934,0,0,0,2.93,1.657l8.063-4.835a1.468,1.468,0,0,1,1.424-.054l.3.151a1.481,1.481,0,0,1,.2,2.532Zm0,0" transform="translate(-56.998 -389.131)" fill="#b5c1de"/>
      <path id="パス_352" data-name="パス 352" d="M437.564,309.967V281.626a7.736,7.736,0,0,0-7.736-7.736h-9.67v3.868h3.868v36.748h3.868V277.758h1.934a3.868,3.868,0,0,1,3.868,3.868v40.616h3.868V316.2l2.515,3.192a5.818,5.818,0,0,1,1.353,3.715v28.144H430.818a10.859,10.859,0,0,1,.371-12.129l.194-.253a1.934,1.934,0,0,0-.183-2.514L420.563,325.72a2.172,2.172,0,0,1,0-3.068,2.221,2.221,0,0,1,3.067,0L436.2,335.224l2.735-2.734-12.572-12.572a6.178,6.178,0,0,0-8.537,0,6.043,6.043,0,0,0,0,8.536l9.5,9.5a14.624,14.624,0,0,0,.989,16.44,1.931,1.931,0,0,0,1.512.727h13.539a1.933,1.933,0,0,0,1.933-1.934V323.109a9.637,9.637,0,0,0-2.209-6.151Zm0,0" transform="translate(-329.255 -273.89)" fill="#b5c1de"/>
    </g>
    <path id="パス_353" data-name="パス 353" d="M226.759,272.572h-3.868V235.824a1.934,1.934,0,0,0-1.934-1.934H213.22a1.934,1.934,0,0,0-1.934,1.934v36.748h-3.868V253.231a1.934,1.934,0,0,0-1.934-1.934h-7.736a1.934,1.934,0,0,0-1.934,1.934v19.341h-3.868v-32.88a1.934,1.934,0,0,0-1.934-1.934h-7.736a1.934,1.934,0,0,0-1.934,1.934v32.88h-3.868V255.165a1.934,1.934,0,0,0-1.934-1.934H166.8a1.934,1.934,0,0,0-1.934,1.934v17.407H161v3.868h65.759Zm-58.023,0V257.1H172.6v15.473Zm15.473,0V241.626h3.868v30.945Zm15.473,0V255.165h3.868v17.407Zm15.473,0V237.758h3.868v34.814Zm0,0" transform="translate(-78.858 0)" fill="#b5c1de"/>
    <rect id="長方形_488" data-name="長方形 488" width="12" height="4" transform="translate(104.998 279.792)" fill="#b5c1de"/>
    <rect id="長方形_489" data-name="長方形 489" width="6" height="4" transform="translate(95.998 279.792)" fill="#b5c1de"/>
    <rect id="長方形_490" data-name="長方形 490" width="12" height="4" transform="translate(135.998 279.792)" fill="#b5c1de"/>
    <rect id="長方形_491" data-name="長方形 491" width="11" height="4" transform="translate(120.998 279.792)" fill="#b5c1de"/>
    <rect id="長方形_492" data-name="長方形 492" width="12" height="4" transform="translate(104.998 287.792)" fill="#b5c1de"/>
    <rect id="長方形_493" data-name="長方形 493" width="6" height="4" transform="translate(95.998 287.792)" fill="#b5c1de"/>
    <rect id="長方形_494" data-name="長方形 494" width="4" height="4" transform="translate(135.998 287.792)" fill="#b5c1de"/>
    <rect id="長方形_495" data-name="長方形 495" width="11" height="4" transform="translate(120.998 287.792)" fill="#b5c1de"/>
    <rect id="長方形_496" data-name="長方形 496" width="12" height="4" transform="translate(104.998 295.792)" fill="#b5c1de"/>
    <rect id="長方形_497" data-name="長方形 497" width="6" height="4" transform="translate(95.998 295.792)" fill="#b5c1de"/>
    <rect id="長方形_498" data-name="長方形 498" width="4" height="4" transform="translate(135.998 295.792)" fill="#b5c1de"/>
    <rect id="長方形_499" data-name="長方形 499" width="11" height="4" transform="translate(120.998 295.792)" fill="#b5c1de"/>
    <rect id="長方形_500" data-name="長方形 500" width="8" height="3" transform="translate(108.998 303.792)" fill="#b5c1de"/>
    <rect id="長方形_501" data-name="長方形 501" width="12" height="3" transform="translate(135.998 303.792)" fill="#b5c1de"/>
    <rect id="長方形_502" data-name="長方形 502" width="11" height="3" transform="translate(120.998 303.792)" fill="#b5c1de"/>
  </g>
</svg>
