<svg id="グループ_559" data-name="グループ 559" xmlns="http://www.w3.org/2000/svg" width="90.918" height="90.586" viewBox="0 0 90.918 90.586">
  <path id="パス_354" data-name="パス 354" d="M130.638,316.156a1.516,1.516,0,0,1,1.515-1.515H142.76v-9.092a1.516,1.516,0,0,1,1.515-1.515h10.607v-9.092a1.516,1.516,0,0,1,1.515-1.515h10.607v-9.092a1.516,1.516,0,0,1,1.515-1.515h10.607v-9.092a1.516,1.516,0,0,1,1.515-1.515H191.25V260.089a1.516,1.516,0,0,1,1.515-1.515h12.122a1.516,1.516,0,0,1,1.515,1.515v75.765h1.515v3.031H117v-3.031h13.638Zm3.031,1.515v18.184h9.092V317.671Zm12.122-10.607v28.791h9.092V307.064Zm12.122-10.607v39.4h9.092v-39.4Zm12.122-10.607v50.005h9.092V285.85Zm12.122-10.607v60.612h9.092V275.242ZM203.373,261.6h-9.092v74.25h9.092Zm0,0" transform="translate(-117 -254.36)" fill="#b5c1de"/>
  <rect id="長方形_503" data-name="長方形 503" width="6.061" height="3.031" transform="translate(54.551 87.555)" fill="#b5c1de"/>
  <rect id="長方形_504" data-name="長方形 504" width="6.061" height="3.031" transform="translate(66.674 87.555)" fill="#b5c1de"/>
  <rect id="長方形_505" data-name="長方形 505" width="6.061" height="3.031" transform="translate(78.796 87.555)" fill="#b5c1de"/>
  <rect id="長方形_506" data-name="長方形 506" width="6.061" height="3.031" transform="translate(42.429 87.555)" fill="#b5c1de"/>
  <rect id="長方形_507" data-name="長方形 507" width="6.061" height="3.031" transform="translate(30.306 87.555)" fill="#b5c1de"/>
  <rect id="長方形_508" data-name="長方形 508" width="6.061" height="3.031" transform="translate(18.184 87.555)" fill="#b5c1de"/>
  <path id="パス_355" data-name="パス 355" d="M204.765,291.563h8.784l16.976-14.551v-8.178a1.516,1.516,0,0,1,1.515-1.515h8.846l13.883-11.569v-8.13a1.516,1.516,0,0,1,1.515-1.515h8.939l5.267-4.214,1.894,2.366-5.493,4.394v8.061a1.516,1.516,0,0,1-1.515,1.515h-8.846L242.648,269.8v8.13a1.516,1.516,0,0,1-1.515,1.515h-8.784l-16.976,14.551v8.178a1.516,1.516,0,0,1-1.515,1.515h-3.031v10.607H207.8V303.685h-3.031a1.516,1.516,0,0,1-1.515-1.515v-9.092a1.516,1.516,0,0,1,1.515-1.515Zm59.1-42.429H257.8V255.2h6.061Zm-24.245,21.214h-6.061v6.061h6.061Zm-33.337,30.306h6.061v-6.061h-6.061Zm0,0" transform="translate(-203.25 -241.89)" fill="#b5c1de"/>
  <rect id="長方形_509" data-name="長方形 509" width="3.031" height="3.031" transform="translate(4.546 75.433)" fill="#b5c1de"/>
</svg>
