<svg xmlns="http://www.w3.org/2000/svg" width="91" height="91" viewBox="0 0 91 91">
  <g id="グループ_560" data-name="グループ 560" transform="translate(-117 -241.89)">
    <path id="パス_356" data-name="パス 356" d="M322.917,337.89h-36.4a1.517,1.517,0,1,0,0,3.033h36.4a1.517,1.517,0,1,0,0-3.033Zm0,0" transform="translate(-125.533 -71.733)" fill="#b5c1de"/>
    <path id="パス_357" data-name="パス 357" d="M306.233,553.89H286.517a1.517,1.517,0,0,0,0,3.033h19.717a1.517,1.517,0,0,0,0-3.033Zm0,0" transform="translate(-125.533 -233.133)" fill="#b5c1de"/>
    <path id="パス_358" data-name="パス 358" d="M394.65,409.89H382.517a1.517,1.517,0,1,0,0,3.033H394.65a1.517,1.517,0,0,0,0-3.033Zm0,0" transform="translate(-197.267 -125.533)" fill="#b5c1de"/>
    <path id="パス_359" data-name="パス 359" d="M286.517,412.923h18.2a1.517,1.517,0,1,0,0-3.033h-18.2a1.517,1.517,0,1,0,0,3.033Zm0,0" transform="translate(-125.533 -125.533)" fill="#b5c1de"/>
    <path id="パス_360" data-name="パス 360" d="M286.517,448.923H298.65a1.517,1.517,0,0,0,0-3.033H286.517a1.517,1.517,0,1,0,0,3.033Zm0,0" transform="translate(-125.533 -152.433)" fill="#b5c1de"/>
    <path id="パス_361" data-name="パス 361" d="M376.717,445.89h-18.2a1.517,1.517,0,1,0,0,3.033h18.2a1.517,1.517,0,0,0,0-3.033Zm0,0" transform="translate(-179.333 -152.433)" fill="#b5c1de"/>
    <path id="パス_362" data-name="パス 362" d="M309.267,517.89h-22.75a1.517,1.517,0,0,0,0,3.033h22.75a1.517,1.517,0,0,0,0-3.033Zm0,0" transform="translate(-125.533 -206.233)" fill="#b5c1de"/>
    <path id="パス_363" data-name="パス 363" d="M286.517,376.923H298.65a1.517,1.517,0,0,0,0-3.033H286.517a1.517,1.517,0,1,0,0,3.033Zm0,0" transform="translate(-125.533 -98.633)" fill="#b5c1de"/>
    <path id="パス_364" data-name="パス 364" d="M376.717,373.89h-18.2a1.517,1.517,0,1,0,0,3.033h18.2a1.517,1.517,0,0,0,0-3.033Zm0,0" transform="translate(-179.333 -98.633)" fill="#b5c1de"/>
    <path id="パス_365" data-name="パス 365" d="M394.65,481.89H382.517a1.517,1.517,0,1,0,0,3.033H394.65a1.517,1.517,0,0,0,0-3.033Zm0,0" transform="translate(-197.267 -179.333)" fill="#b5c1de"/>
    <path id="パス_366" data-name="パス 366" d="M286.517,484.923h18.2a1.517,1.517,0,0,0,0-3.033h-18.2a1.517,1.517,0,1,0,0,3.033Zm0,0" transform="translate(-125.533 -179.333)" fill="#b5c1de"/>
    <path id="パス_367" data-name="パス 367" d="M203.45,254.023H154.917a4.555,4.555,0,0,0-4.55,4.55V328.34a4.5,4.5,0,0,0,.279,1.517h-29.1a1.519,1.519,0,0,1-1.517-1.517v-81.9a1.519,1.519,0,0,1,1.517-1.517h3.033v21.233a3.037,3.037,0,0,0,3.033,3.033h1.517a3.037,3.037,0,0,0,3.033-3.033V249.473a1.517,1.517,0,0,0-3.033,0v16.683h-1.517V244.923h6.067V264.64a1.517,1.517,0,0,0,3.033,0V244.923h37.917a1.519,1.519,0,0,1,1.517,1.517v3.033a1.517,1.517,0,1,0,3.033,0V246.44a4.555,4.555,0,0,0-4.55-4.55H121.55a4.555,4.555,0,0,0-4.55,4.55v81.9a4.555,4.555,0,0,0,4.55,4.55H189.8a1.529,1.529,0,0,0,1.072-.444l16.683-16.683a1.58,1.58,0,0,0,.425-.977c0-.034.02-.062.02-.1V258.573a4.555,4.555,0,0,0-4.55-4.55Zm-12.133,73.689v-9.989a1.519,1.519,0,0,1,1.517-1.517h9.989Zm13.65-14.539H192.833a4.555,4.555,0,0,0-4.55,4.55v12.133H154.917a1.52,1.52,0,0,1-1.517-1.517V258.573a1.52,1.52,0,0,1,1.517-1.517H203.45a1.52,1.52,0,0,1,1.517,1.517Zm0,0" transform="translate(0 0)" fill="#b5c1de"/>
    <path id="パス_368" data-name="パス 368" d="M148.517,376.923H160.65a1.517,1.517,0,0,0,0-3.033H148.517a1.517,1.517,0,1,0,0,3.033Zm0,0" transform="translate(-22.417 -98.633)" fill="#b5c1de"/>
    <path id="パス_369" data-name="パス 369" d="M166.717,409.89h-18.2a1.517,1.517,0,1,0,0,3.033h18.2a1.517,1.517,0,1,0,0-3.033Zm0,0" transform="translate(-22.417 -125.533)" fill="#b5c1de"/>
    <path id="パス_370" data-name="パス 370" d="M148.517,448.923H160.65a1.517,1.517,0,0,0,0-3.033H148.517a1.517,1.517,0,1,0,0,3.033Zm0,0" transform="translate(-22.417 -152.433)" fill="#b5c1de"/>
    <path id="パス_371" data-name="パス 371" d="M166.717,481.89h-18.2a1.517,1.517,0,1,0,0,3.033h18.2a1.517,1.517,0,1,0,0-3.033Zm0,0" transform="translate(-22.417 -179.333)" fill="#b5c1de"/>
    <path id="パス_372" data-name="パス 372" d="M148.517,520.923H160.65a1.517,1.517,0,1,0,0-3.033H148.517a1.517,1.517,0,0,0,0,3.033Zm0,0" transform="translate(-22.417 -206.233)" fill="#b5c1de"/>
    <path id="パス_373" data-name="パス 373" d="M148.517,556.923h18.2a1.517,1.517,0,0,0,0-3.033h-18.2a1.517,1.517,0,0,0,0,3.033Zm0,0" transform="translate(-22.417 -233.133)" fill="#b5c1de"/>
  </g>
</svg>
