<svg xmlns="http://www.w3.org/2000/svg" width="90.839" height="90.825" viewBox="0 0 90.839 90.825">
  <g id="グループ_562" data-name="グループ 562" transform="translate(-57 -181.968)">
    <g id="グループ_561" data-name="グループ 561" transform="translate(93.344 200.129)">
      <path id="パス_374" data-name="パス 374" d="M303.373,281.3a4.543,4.543,0,0,0-8.325-1.09l-.757,1.317a1.514,1.514,0,0,0-2.058.545l-3.845,6.554-1.317-.757a1.512,1.512,0,1,0-1.514,2.618l1.317.757-12.867,22.3-3.179,8.493-1.514,2.83a4.541,4.541,0,0,0,.243,4.9l-3.406,4.177-.954-2.391a3.028,3.028,0,0,0-5.4-.424l-.545.923L258.733,326a3.027,3.027,0,0,0-5.888-.711l-3.724,11.172a1.513,1.513,0,0,0,.953,1.907,1.315,1.315,0,0,0,.47.121,1.514,1.514,0,0,0,1.438-1.028l3.708-11.172.53,6.145a3.028,3.028,0,0,0,5.616,1.3l.56-.923.938,2.377a3.027,3.027,0,0,0,5.177.772l3.527-4.465a4.661,4.661,0,0,0,1.2.151,4.541,4.541,0,0,0,3.951-2.241l1.514-2.528,5.767-7.008,13-22.57,1.317.757a1.517,1.517,0,0,1,.56,2.074l-6.055,10.491a1.5,1.5,0,1,0,2.558,1.574l6.054-10.49a4.54,4.54,0,0,0-1.665-6.207l-1.317-.757,3.784-6.554a1.515,1.515,0,0,0-.545-2.059l.757-1.317a4.54,4.54,0,0,0,.454-3.512Zm-5.707.423a1.512,1.512,0,0,1,.924-.71,1.59,1.59,0,0,1,1.15.151,1.513,1.513,0,0,1,.712.923,1.591,1.591,0,0,1-.152,1.15l-.757,1.317-2.634-1.514Zm-20.632,42.265-.757-.439-2.24-1.3,2.149-5.752,4.768,2.755Zm-4.541,4.374a1.513,1.513,0,0,1-.454-1.983l.757-1.317,2.634,1.514-.757,1.3a1.513,1.513,0,0,1-2.18.484Zm10.188-11.6-5.237-3.027,12.11-20.981,5.238,3.027Zm13.624-23.6-5.238-3.028,3.027-5.237,5.238,3.027Zm0,0" transform="translate(-249.045 -277.932)" fill="#b5c1de"/>
    </g>
    <path id="パス_375" data-name="パス 375" d="M135.45,538.831l-5.357,5.344-3.21-3.21a1.515,1.515,0,1,0-2.134,2.15l3.209,3.209a3.052,3.052,0,0,0,4.284,0l5.343-5.359a1.514,1.514,0,0,0-2.135-2.134Zm0,0" transform="translate(-54.564 -289.032)" fill="#b5c1de"/>
    <path id="パス_376" data-name="パス 376" d="M89,506.786a12.867,12.867,0,0,0,25.733,0,1.514,1.514,0,1,0-3.028,0,9.841,9.841,0,1,1-3.936-7.871,1.514,1.514,0,0,0,1.817-2.423A12.867,12.867,0,0,0,89,506.786Zm0,0" transform="translate(-25.941 -252.915)" fill="#b5c1de"/>
    <path id="パス_377" data-name="パス 377" d="M169.858,232.988a1.514,1.514,0,0,0,0-3.028H130.5a1.514,1.514,0,0,0-1.514,1.514v6.055a1.513,1.513,0,0,0,1.514,1.513h39.356a1.514,1.514,0,1,0,0-3.027H132.015v-3.027Zm0,0" transform="translate(-58.364 -38.91)" fill="#b5c1de"/>
    <path id="パス_378" data-name="パス 378" d="M154.5,293.952a1.514,1.514,0,0,0,0,3.027h30.275a1.514,1.514,0,1,0,0-3.027Zm0,0" transform="translate(-77.819 -90.791)" fill="#b5c1de"/>
    <path id="パス_379" data-name="パス 379" d="M219.793,349.941h-33.3a1.514,1.514,0,1,0,0,3.027h33.3a1.514,1.514,0,1,0,0-3.027Zm0,0" transform="translate(-103.758 -136.184)" fill="#b5c1de"/>
    <path id="パス_380" data-name="パス 380" d="M146.294,399.447a1.514,1.514,0,0,0-1.514-1.514H114.505a1.514,1.514,0,0,0,0,3.027H144.78a1.513,1.513,0,0,0,1.514-1.513Zm0,0" transform="translate(-45.396 -175.094)" fill="#b5c1de"/>
    <path id="パス_381" data-name="パス 381" d="M317.067,397.933h-10.6a1.514,1.514,0,1,0,0,3.027h10.6a1.514,1.514,0,1,0,0-3.027Zm0,0" transform="translate(-201.031 -175.094)" fill="#b5c1de"/>
    <path id="パス_382" data-name="パス 382" d="M129.643,440.953a1.514,1.514,0,0,0,0-3.028H114.505a1.514,1.514,0,0,0,0,3.028Zm0,0" transform="translate(-45.396 -207.517)" fill="#b5c1de"/>
    <path id="パス_383" data-name="パス 383" d="M226.486,440.953h10.6a1.514,1.514,0,1,0,0-3.028h-10.6a1.514,1.514,0,0,0,0,3.028Zm0,0" transform="translate(-136.184 -207.517)" fill="#b5c1de"/>
    <path id="パス_384" data-name="パス 384" d="M125.118,251.6a1.514,1.514,0,0,0-1.513,1.514v15.138a1.513,1.513,0,0,1-1.514,1.513H61.541a1.513,1.513,0,0,1-1.514-1.513V186.509A1.514,1.514,0,0,1,61.541,185H122.09a1.514,1.514,0,0,1,1.514,1.513v28.429a1.514,1.514,0,1,0,3.027,0V186.509a4.542,4.542,0,0,0-4.541-4.541H61.541A4.542,4.542,0,0,0,57,186.509v81.742a4.541,4.541,0,0,0,4.541,4.541H122.09a4.542,4.542,0,0,0,4.541-4.541V253.114a1.514,1.514,0,0,0-1.514-1.514Zm0,0" fill="#b5c1de"/>
  </g>
</svg>
