<svg xmlns="http://www.w3.org/2000/svg" width="81.812" height="90.902"><g data-name="グループ 546" fill="#b5c1de"><path data-name="パス 323" d="M57.571 59.086a7.575 7.575 0 107.575-7.575 7.574 7.574 0 00-7.575 7.575zm12.12 0a4.545 4.545 0 11-4.545-4.545 4.545 4.545 0 014.545 4.545zm0 0"/><path data-name="パス 324" d="M70.419 80.766c4.606-5.939 11.393-15.71 11.393-21.68A16.7 16.7 0 0068.177 42.71V9.09h3.03a1.516 1.516 0 001.515-1.515v-6.06A1.516 1.516 0 0071.207 0H1.515A1.516 1.516 0 000 1.515v6.06A1.516 1.516 0 001.515 9.09h3.03v60.6h-3.03A1.516 1.516 0 000 71.21v4.545a1.516 1.516 0 001.515 1.515h55.738c.91 1.258 1.8 2.439 2.622 3.5-3.651.7-6.848 2.212-6.848 4.833 0 3.636 6.287 5.3 12.12 5.3s12.12-1.667 12.12-5.3c0-2.621-3.2-4.136-6.848-4.833zM3.03 6.06V3.03h66.662v3.03zM60.6 30.301h-9.09A1.516 1.516 0 0050 31.816v10.605h-1.515v3.03h7.12a16.629 16.629 0 00-7.12 13.635c0 2.923 1.636 6.758 3.833 10.605h-6.863v-7.575a9.09 9.09 0 10-18.18 0v7.575h-19.7v-60.6h57.571v33.331a16.711 16.711 0 00-3.03.288V31.816a1.516 1.516 0 00-1.515-1.515zm-1.515 3.03v9.09h-6.06v-9.09zM42.42 62.117v7.575H30.3v-7.575a6.06 6.06 0 1112.12 0zM3.029 74.237v-1.515h51.118c.334.515.666 1.015 1 1.515zm48.481-15.15a13.636 13.636 0 0127.271 0c0 5.863-8.984 17.832-13.635 23.423-4.652-5.591-13.635-17.56-13.635-23.423zm13.635 28.786c-5.817 0-8.909-1.667-9.09-2.242.136-.469 2.075-1.667 6-2.106a78.77 78.77 0 001.954 2.318 1.515 1.515 0 002.273 0c.136-.152.879-1 1.954-2.318 3.925.439 5.864 1.637 6 2.045-.182.636-3.273 2.3-9.09 2.3zm0 0"/><path data-name="パス 325" d="M62.116 24.24V13.635a1.516 1.516 0 00-1.515-1.515h-9.09a1.516 1.516 0 00-1.515 1.515V24.24h-1.515v3.03h15.15v-3.03zm-3.03 0h-6.06v-9.09h6.06zm0 0"/><path data-name="パス 326" d="M42.421 24.24V13.635a1.516 1.516 0 00-1.515-1.515h-9.09a1.516 1.516 0 00-1.515 1.515V24.24h-1.515v3.03h15.15v-3.03zm-3.03 0h-6.06v-9.09h6.06zm0 0"/><path data-name="パス 327" d="M22.725 24.24V13.635a1.516 1.516 0 00-1.515-1.515h-9.09a1.516 1.516 0 00-1.515 1.515V24.24H9.09v3.03h15.15v-3.03zm-3.03 0h-6.06v-9.09h6.06zm0 0"/><path data-name="パス 328" d="M22.725 42.421V31.816a1.516 1.516 0 00-1.515-1.515h-9.09a1.516 1.516 0 00-1.515 1.515v10.605H9.09v3.03h15.15v-3.03zm-3.03 0h-6.06v-9.09h6.06zm0 0"/><path data-name="パス 329" d="M42.421 42.421V31.816a1.516 1.516 0 00-1.515-1.515h-9.09a1.516 1.516 0 00-1.515 1.515v10.605h-1.515v3.03h15.15v-3.03zm-3.03 0h-6.06v-9.09h6.06zm0 0"/></g></svg>