<svg xmlns="http://www.w3.org/2000/svg" width="90.938" height="90.95"><g data-name="グループ 545"><g data-name="グループ 544"><path data-name="パス 312" d="M75.172 18.91a24.233 24.233 0 00-44.636-6.778h-.226A19.738 19.738 0 0010.944 28.31 16.764 16.764 0 00.07 45.548a16.383 16.383 0 008.084 12.609l1.554-2.6A13.384 13.384 0 013.089 45.27a13.71 13.71 0 019.639-14.362 1.515 1.515 0 001.061-1.253A16.7 16.7 0 0130.31 15.17c.236 0 .47.017.7.032l.3.02a1.514 1.514 0 001.429-.807 21.2 21.2 0 0139.643 6.024 1.514 1.514 0 001.171 1.213 18.219 18.219 0 0114.263 19.541 17.708 17.708 0 01-6.908 12.4l1.858 2.393a20.711 20.711 0 008.068-14.508 21.259 21.259 0 00-15.669-22.56zm0 0" fill="#b5c1de"/></g><path data-name="パス 313" d="M46.983 69.731h-3.031A10.621 10.621 0 0033.343 80.34v10.609h24.25V80.34a10.622 10.622 0 00-10.609-10.609zm7.578 18.188H36.373v-7.578a7.587 7.587 0 017.578-7.578h3.031a7.588 7.588 0 017.578 7.578zm0 0" fill="#b5c1de"/><path data-name="パス 314" d="M45.467 53.059a7.578 7.578 0 107.578 7.578 7.578 7.578 0 00-7.578-7.578zm0 12.125a4.547 4.547 0 114.547-4.547 4.547 4.547 0 01-4.547 4.547zm0 0" fill="#b5c1de"/><path data-name="パス 315" d="M19.701 69.731H16.67A10.621 10.621 0 006.061 80.34v10.609h24.25V80.34a10.622 10.622 0 00-10.609-10.609zm7.578 18.188H9.091v-7.578a7.587 7.587 0 017.578-7.578H19.7a7.588 7.588 0 017.578 7.578zm0 0" fill="#b5c1de"/><path data-name="パス 316" d="M18.185 53.059a7.578 7.578 0 107.578 7.578 7.578 7.578 0 00-7.578-7.578zm0 12.125a4.547 4.547 0 114.547-4.547 4.547 4.547 0 01-4.547 4.547zm0 0" fill="#b5c1de"/><path data-name="パス 317" d="M74.264 69.731h-3.031A10.621 10.621 0 0060.624 80.34v10.609h24.25V80.34a10.622 10.622 0 00-10.609-10.609zm7.578 18.188H63.654v-7.578a7.587 7.587 0 017.578-7.578h3.031a7.588 7.588 0 017.578 7.578zm0 0" fill="#b5c1de"/><path data-name="パス 318" d="M72.748 53.059a7.578 7.578 0 107.578 7.578 7.578 7.578 0 00-7.578-7.578zm0 12.125a4.547 4.547 0 114.547-4.547 4.547 4.547 0 01-4.547 4.547zm0 0" fill="#b5c1de"/><path data-name="パス 319" d="M56.721 24.273a12.134 12.134 0 10-15.8 15.781v.88H37.89v3.031h3.031v3.031a1.516 1.516 0 001.516 1.516h1.516v1.516h3.031v-1.516H48.5a1.516 1.516 0 001.516-1.516v-3.031h3.031v-3.031h-3.031v-.88a12.125 12.125 0 006.709-15.781zm-9.739 21.208h-3.031v-1.516h3.031zm1.083-7.955a1.513 1.513 0 00-1.083 1.453v1.955h-3.031v-1.955a1.516 1.516 0 00-1.084-1.453 9.093 9.093 0 115.2 0zm0 0" fill="#b5c1de"/><path data-name="パス 320" d="M37.889 28.809h3.031a4.547 4.547 0 014.547-4.547v-3.031a7.587 7.587 0 00-7.578 7.578zm0 0" fill="#b5c1de"/><path data-name="長方形 411" fill="#b5c1de" d="M43.951 12.137h3.031v3.031h-3.031z"/><path data-name="パス 321" d="M54.037 18.093l2.144-2.143 2.143 2.143-2.143 2.143zm0 0" fill="#b5c1de"/><path data-name="長方形 412" fill="#b5c1de" d="M59.107 27.293h3.031v3.031h-3.031z"/><path data-name="パス 322" d="M32.608 18.09l2.143-2.143 2.143 2.144-2.143 2.143zm0 0" fill="#b5c1de"/><path data-name="長方形 413" fill="#b5c1de" d="M28.795 27.293h3.031v3.031h-3.031z"/></g></svg>