<svg xmlns="http://www.w3.org/2000/svg" width="91.041" height="90.847"><g data-name="グループ 547" fill="#b5c1de"><path data-name="パス 330" d="M20.558 61.479v8.81h5.874v-2.937h-2.937v-5.874zm0 0"/><path data-name="パス 331" d="M22.026 52.669a16.186 16.186 0 00-10.222 3.649l1.861 2.271a13.232 13.232 0 016.892-2.891v2.844h2.935v-2.851a13.235 13.235 0 0111.66 11.661h-2.85v2.937h2.844a13.218 13.218 0 01-2.892 6.891l2.274 1.862a16.151 16.151 0 00-12.505-26.374zm0 0"/><path data-name="パス 332" d="M23.495 81.944V79.1h-2.937v2.85a13.233 13.233 0 01-11.66-11.661h2.85v-2.937H8.903a13.221 13.221 0 012.892-6.892l-2.274-1.861a16.15 16.15 0 0022.727 22.724l-1.861-2.271a13.233 13.233 0 01-6.892 2.891zm0 0"/><path data-name="パス 333" d="M91.041 18.896h-8.81v-7.342h-7.342V0l-5.874 3.915L63.141 0v11.554H60.2a13.219 13.219 0 00-11.747 7.189 13.219 13.219 0 00-11.747-7.189H14.684v7.342h-8.81v35a21.995 21.995 0 1033.732 28.14h17.662v1.474a7.342 7.342 0 1014.684 0v-1.468h19.089zM66.078 5.486l2.937 1.959 2.937-1.959v6.068h-5.874zm-5.874 9h19.089v55.8h-7.342V36.071l-3.619-5.428h8.025V27.71h-9.982l-1.765-2.648-1.765 2.648H55.8v2.937h5.088l-3.619 5.428V70.29h-7.343V24.77A10.291 10.291 0 0160.2 14.49zm2.937 42.584v17.621H60.2v-36.71h2.937v16.152h2.937V37.985h2.937v36.71h-2.937V57.074zm1.468-26.721l3.13 4.695H61.48zM36.71 14.49a10.291 10.291 0 0110.279 10.279v45.52h-3.011c.032-.487.075-.972.075-1.468A21.913 21.913 0 0038.4 54.137h2.718V39.453h-20.56v7.417a21.976 21.976 0 00-2.937.37V14.49zm1.468 36.71h-2.992a21.862 21.862 0 00-11.691-4.331v-4.48h14.683zM14.684 21.832V48.08a21.957 21.957 0 00-5.874 3.161V21.832zm7.342 66.078a19.089 19.089 0 1119.089-19.089A19.111 19.111 0 0122.026 87.91zm19.465-8.81a21.805 21.805 0 002.116-5.874h13.661V79.1zm23.119 8.81a4.411 4.411 0 01-4.41-4.4v-5.874h8.81v5.874a4.411 4.411 0 01-4.405 4.405zm23.494-8.81H71.952v-5.874H82.23V21.832h5.87zm0 0"/><path data-name="長方形 414" d="M20.558 21.832h2.937v2.937h-2.937z"/><path data-name="長方形 415" d="M26.431 21.832h14.684v2.937H26.431z"/><path data-name="長方形 416" d="M20.558 27.706h2.937v2.937h-2.937z"/><path data-name="長方形 417" d="M26.431 27.706h14.684v2.937H26.431z"/><path data-name="長方形 418" d="M20.558 33.58h20.558v2.937H20.558z"/><path data-name="長方形 419" d="M55.799 21.832h20.558v2.937H55.799z"/></g></svg>