<svg xmlns="http://www.w3.org/2000/svg" width="90.902" height="90.902"><g data-name="グループ 548" fill="#b5c1de"><path data-name="パス 334" d="M43.936 18.18H27.271V1.515A1.515 1.515 0 0025.756 0H1.515A1.515 1.515 0 000 1.515v42.421a1.515 1.515 0 001.515 1.515h42.421a1.515 1.515 0 001.515-1.515V19.695a1.515 1.515 0 00-1.515-1.515zM16.665 42.421h-6.06v-9.09h6.06zm7.575-22.726v22.726H19.7v-9.09h1.515v-3.03H6.06v3.03h1.515v9.09H3.03V3.03h21.211zm18.18 22.726H27.27V21.21h15.15zm0 0"/><path data-name="パス 335" d="M89.387 63.632H72.722v-18.18a1.515 1.515 0 00-1.515-1.515H53.031a1.515 1.515 0 00-1.515 1.515v18.18h-16.67a1.515 1.515 0 00-1.515 1.514v24.241a1.515 1.515 0 001.515 1.515h54.541a1.515 1.515 0 001.515-1.515V65.146a1.515 1.515 0 00-1.515-1.515zm-37.876 24.24h-15.15v-21.21h15.15zm12.12 0h-3.03v-6.06h3.03zm6.06-22.726v22.726h-3.03v-7.575a1.515 1.515 0 00-1.515-1.515h-6.06a1.515 1.515 0 00-1.515 1.515v7.575h-3.03V46.966h15.15zm18.18 22.726h-15.15v-21.21h15.15zm0 0"/><path data-name="長方形 420" d="M5.603 5.902h3v3h-3z"/><path data-name="長方形 421" d="M12.603 5.902h3v3h-3z"/><path data-name="長方形 422" d="M18.603 5.902h3v3h-3z"/><path data-name="長方形 423" d="M5.603 11.902h3v3h-3z"/><path data-name="長方形 424" d="M12.603 11.902h3v3h-3z"/><path data-name="長方形 425" d="M18.603 11.902h3v3h-3z"/><path data-name="長方形 426" d="M5.603 18.902h3v2h-3z"/><path data-name="長方形 427" d="M12.603 18.902h3v2h-3z"/><path data-name="長方形 428" d="M18.603 18.902h3v2h-3z"/><path data-name="長方形 429" d="M29.603 23.902h4v3h-4z"/><path data-name="長方形 430" d="M36.603 23.902h3v3h-3z"/><path data-name="長方形 431" d="M29.603 29.902h4v3h-4z"/><path data-name="長方形 432" d="M36.603 29.902h3v3h-3z"/><path data-name="長方形 433" d="M57.603 49.902h3v3h-3z"/><path data-name="長方形 434" d="M63.603 49.902h3v3h-3z"/><path data-name="長方形 435" d="M57.603 55.902h3v3h-3z"/><path data-name="長方形 436" d="M63.603 55.902h3v3h-3z"/><path data-name="長方形 437" d="M57.603 61.902h3v3h-3z"/><path data-name="長方形 438" d="M63.603 61.902h3v3h-3z"/><path data-name="長方形 439" d="M57.603 67.902h3v4h-3z"/><path data-name="長方形 440" d="M63.603 67.902h3v4h-3z"/><path data-name="長方形 441" d="M75.603 69.902h3v3h-3z"/><path data-name="長方形 442" d="M81.603 69.902h3v3h-3z"/><path data-name="長方形 443" d="M75.603 75.902h3v3h-3z"/><path data-name="長方形 444" d="M81.603 75.902h3v3h-3z"/><path data-name="長方形 445" d="M39.603 69.902h3v3h-3z"/><path data-name="長方形 446" d="M45.603 69.902h3v3h-3z"/><path data-name="長方形 447" d="M39.603 75.902h3v3h-3z"/><path data-name="長方形 448" d="M45.603 75.902h3v3h-3z"/><path data-name="長方形 449" d="M29.603 8.902h4v3h-4z"/><path data-name="長方形 450" d="M36.603 8.902h3v3h-3z"/><path data-name="長方形 451" d="M42.603 8.902h3v3h-3z"/><path data-name="長方形 452" d="M48.603 8.902h3v3h-3z"/><path data-name="長方形 453" d="M54.603 8.902h3v3h-3z"/><path data-name="長方形 454" d="M60.603 8.902h3v3h-3z"/><path data-name="長方形 455" d="M66.603 8.902h3v3h-3z"/><path data-name="長方形 456" d="M72.603 8.902h3v3h-3z"/><path data-name="長方形 457" d="M78.603 8.902h3v3h-3z"/><path data-name="長方形 458" d="M78.603 14.902h3v4h-3z"/><path data-name="長方形 459" d="M78.603 20.902h3v3h-3z"/><path data-name="長方形 460" d="M78.603 26.902h3v3h-3z"/><path data-name="長方形 461" d="M78.603 32.902h3v3h-3z"/><path data-name="長方形 462" d="M78.603 39.902h3v3h-3z"/><path data-name="長方形 463" d="M78.603 45.902h3v3h-3z"/><path data-name="長方形 464" d="M78.603 51.902h3v2h-3z"/><path data-name="長方形 465" d="M78.603 56.902h3v4h-3z"/><path data-name="長方形 466" d="M8.603 48.902h4v3h-4z"/><path data-name="長方形 467" d="M8.603 53.902h4v3h-4z"/><path data-name="長方形 468" d="M8.603 60.902h4v3h-4z"/><path data-name="長方形 469" d="M8.603 66.902h4v3h-4z"/><path data-name="長方形 470" d="M8.603 72.902h4v3h-4z"/><path data-name="長方形 471" d="M8.603 78.902h4v3h-4z"/><path data-name="長方形 472" d="M15.603 78.902h3v3h-3z"/><path data-name="長方形 473" d="M21.603 78.902h3v3h-3z"/><path data-name="長方形 474" d="M26.603 78.902h3v3h-3z"/></g></svg>