<svg xmlns="http://www.w3.org/2000/svg" width="91.017" height="91"><g data-name="グループ 555" fill="#b5c1de"><path data-name="長方形 477" d="M7.113 4.254h17.065v2.844H7.113z"/><path data-name="長方形 478" d="M7.113 9.942h8.532v2.844H7.113z"/><path data-name="長方形 479" d="M67 5h17v2H67z"/><path data-name="長方形 480" d="M75 10h9v3h-9z"/><path data-name="長方形 481" d="M44 0h3v3h-3z"/><path data-name="パス 345" d="M32.437 5.991l2.011-2.011 2.011 2.011-2.011 2.011zm0 0"/><path data-name="長方形 482" d="M29 16h3v3h-3z"/><path data-name="長方形 483" d="M59 16h3v3h-3z"/><g data-name="グループ 553"><path data-name="パス 346" d="M54.559 5.991L56.57 3.98l2.012 2.011-2.012 2.012zm0 0"/><path data-name="パス 347" d="M87.79 73.438l-8.151-2.035v-4.258l1.421-1.083v-9.191a7.11 7.11 0 00-14.221 0v9.188l1.422 1.083V71.4l-8.187 2.043c-.121.034-.208.094-.32.134a4.077 4.077 0 00-.413-.142L51.196 71.4v-4.258l1.422-1.083V54.027a4.266 4.266 0 00-4.266-4.266h-4.091a8.919 8.919 0 00-8.665 6.764l-.442 1.768h3.244v7.766l1.422 1.083V71.4l-8.146 2.036a4.25 4.25 0 00-3.065 3.006 4.251 4.251 0 00-1.038-.284l-6.407-.833a1.408 1.408 0 01-1.253-1.392h8.532V62.559a12.8 12.8 0 00-25.6 0v11.376h8.532a1.408 1.408 0 01-1.253 1.387l-6.407.834a4.275 4.275 0 00-3.716 4.23v10.613h2.844V80.388a1.421 1.421 0 011.238-1.41l4.45-.578v3.526l5.688 2.844v6.232h2.844v-6.233l5.689-2.844v-3.526l4.449.578a1.422 1.422 0 011.239 1.41V91h2.85v-2.841h2.844v2.844h2.844v-9.954h-2.846v4.266H31.29v-7.736a1.422 1.422 0 011.078-1.381l7.9-1.978a4.9 4.9 0 003.822 2.439v5.807h2.84v-5.807a4.9 4.9 0 003.819-2.442l7.9 1.976a1.423 1.423 0 011.078 1.38v7.737H56.89v-4.266h-2.849v9.954h2.849v-2.839h2.844v2.844h2.844V77.579a4.275 4.275 0 00-.38-1.731l6.514-1.628a4.9 4.9 0 003.82 2.442v5.807h2.844v-5.81a4.9 4.9 0 003.819-2.442l7.913 1.976a1.411 1.411 0 011.067 1.378v7.74h-2.844v-4.266h-2.844v9.954h2.844v-2.84h2.844v2.844h2.844V77.576a4.248 4.248 0 00-3.225-4.138zm-67.878-5.97a4.283 4.283 0 01-2.464 3.867l-1.8.84-1.8-.84a4.283 4.283 0 01-2.463-3.867v-4.317l8.533 2.133zM9.547 71.092H5.69v-8.533a9.955 9.955 0 0119.909 0v8.533h-3.857a7.087 7.087 0 001.013-3.624v-4.409L8.534 59.504v7.964a7.091 7.091 0 001.012 3.624zm10.365 9.075L15.646 82.3l-4.266-2.133V77.94a4.259 4.259 0 002.775-3.322l1.491.7 1.491-.7a4.254 4.254 0 002.775 3.322zm28.441-7.69c-.017.252-.24 1.458-2.844 1.458s-2.828-1.219-2.844-1.422v-3.2l.467.358h4.752l.468-.358zm1.422-15.607v7.783l-2.844 2.172H44.09l-2.844-2.172v-6.361h5.684v-2.843h-7.821a6.081 6.081 0 015.153-2.844h4.09a1.422 1.422 0 011.422 1.422zm24.176-4.266a4.266 4.266 0 014 2.844H76.79a4.245 4.245 0 00-2.844 1.089 4.247 4.247 0 00-2.844-1.089h-1.161a4.266 4.266 0 014.005-2.844zm2.844 19.872c-.017.252-.24 1.458-2.844 1.458s-2.829-1.219-2.844-1.422v-3.2l.467.358h4.753l.468-.358zm1.422-7.821l-2.844 2.169h-2.844l-2.844-2.172v-6.361h1.422a1.422 1.422 0 011.422 1.422h2.844a1.421 1.421 0 011.422-1.422h1.422zm0 0"/></g><path data-name="長方形 484" d="M5.691 83.89h2.844V91H5.691z"/><g data-name="グループ 554"><path data-name="長方形 485" d="M22.756 83.89H25.6V91h-2.844z"/><path data-name="パス 348" d="M11.584 23.63a12.685 12.685 0 002.639 5.754v17.532h2.844V31.972a12.789 12.789 0 0012.234 1.064 18.506 18.506 0 0014.786 9.552v4.326h2.844v-4.326a18.506 18.506 0 0014.79-9.554 12.785 12.785 0 0010.807-.246v14.124h2.844V30.873a12.685 12.685 0 004.06-7.243A15.643 15.643 0 0088.918.698L86.455 2.12a12.8 12.8 0 01-8.577 18.956l-1.031.206-.1 1.047a9.938 9.938 0 01-14.946 7.559l-1.371-.806-.648 1.452a15.625 15.625 0 01-28.547 0l-.648-1.452-1.371.806a9.938 9.938 0 01-14.944-7.561l-.1-1.047-1.031-.206A12.8 12.8 0 014.564 2.118L2.101.698a15.643 15.643 0 009.486 22.932zm0 0"/></g><path data-name="パス 349" d="M39.821 26.893v7.228h11.376v-7.225a11.377 11.377 0 10-11.376 0zm8.532 4.38h-5.688v-4.266h5.688zM45.508 8.521a8.522 8.522 0 014.693 15.643h-3.268v-4.266h2.844v-2.844h-8.534v2.844h2.844v4.266h-3.271a8.522 8.522 0 014.693-15.643zm0 0"/></g></svg>