<svg xmlns="http://www.w3.org/2000/svg" width="90.645" height="90.645"><g data-name="グループ 552" fill="#b5c1de"><path data-name="パス 336" d="M49.858 75.54h-3.021a6.043 6.043 0 006.043-6.043v-3.021a6.043 6.043 0 00-6.043-6.043h-3.021a6.043 6.043 0 00-6.043 6.043v3.021a6.043 6.043 0 006.039 6.043h-3.021a4.532 4.532 0 00-4.533 4.53v9.065a1.511 1.511 0 001.511 1.511h15.107a1.511 1.511 0 001.511-1.511V80.07a4.532 4.532 0 00-4.529-4.53zm-9.064-6.043v-3.021a3.021 3.021 0 013.021-3.021h3.021a3.021 3.021 0 013.021 3.021v3.021a3.021 3.021 0 01-3.021 3.021h-3.021a3.021 3.021 0 01-3.021-3.021zm10.575 18.129h-12.09V80.07a1.511 1.511 0 011.511-1.511h9.068a1.511 1.511 0 011.511 1.511zm0 0"/><path data-name="パス 337" d="M49.858 15.11h-3.021a6.043 6.043 0 006.043-6.043V6.046A6.043 6.043 0 0046.837.003h-3.021a6.043 6.043 0 00-6.043 6.043v3.021a6.043 6.043 0 006.039 6.043h-3.021a4.532 4.532 0 00-4.533 4.53v9.064a1.511 1.511 0 001.511 1.511h15.107a1.511 1.511 0 001.511-1.511V19.64a4.532 4.532 0 00-4.529-4.53zm-9.064-6.043V6.046a3.021 3.021 0 013.021-3.021h3.021a3.021 3.021 0 013.021 3.021v3.021a3.021 3.021 0 01-3.021 3.021h-3.021a3.021 3.021 0 01-3.021-3.021zm10.575 18.129h-12.09V19.64a1.511 1.511 0 011.511-1.511h9.068a1.511 1.511 0 011.511 1.511zm0 0"/><path data-name="パス 338" d="M86.116 75.54h-3.021a6.043 6.043 0 006.043-6.043v-3.021a6.043 6.043 0 00-6.043-6.043h-3.022a6.043 6.043 0 00-6.043 6.043v3.021a6.043 6.043 0 006.04 6.043h-3.021a4.532 4.532 0 00-4.533 4.53v9.065a1.511 1.511 0 001.511 1.511h15.107a1.511 1.511 0 001.511-1.511V80.07a4.532 4.532 0 00-4.529-4.53zm-9.064-6.043v-3.021a3.021 3.021 0 013.021-3.021h3.022a3.021 3.021 0 013.021 3.021v3.021a3.021 3.021 0 01-3.021 3.021h-3.022a3.021 3.021 0 01-3.021-3.021zm10.575 18.129h-12.09V80.07a1.511 1.511 0 011.511-1.511h9.068a1.511 1.511 0 011.511 1.511zm0 0"/><path data-name="パス 339" d="M13.6 75.54h-3.021a6.043 6.043 0 006.043-6.043v-3.021a6.043 6.043 0 00-6.043-6.043H7.558a6.043 6.043 0 00-6.043 6.043v3.021a6.043 6.043 0 006.039 6.043H4.533A4.532 4.532 0 000 80.07v9.065a1.511 1.511 0 001.511 1.511h15.107a1.511 1.511 0 001.511-1.511V80.07a4.532 4.532 0 00-4.529-4.53zm-9.064-6.043v-3.021a3.021 3.021 0 013.021-3.021h3.021a3.021 3.021 0 013.021 3.021v3.021a3.021 3.021 0 01-3.021 3.021H7.557a3.021 3.021 0 01-3.021-3.021zm10.575 18.129H3.021V80.07a1.511 1.511 0 011.511-1.511H13.6a1.511 1.511 0 011.511 1.511zm0 0"/><path data-name="パス 340" d="M81.58 43.811H46.833V33.236h-3.021v10.575H9.065a1.511 1.511 0 00-1.511 1.511v12.086h3.021V46.833h33.236v10.575h3.021V46.833h33.236v10.575h3.021V45.322a1.511 1.511 0 00-1.511-1.511zm0 0"/><path data-name="パス 341" d="M75.537 49.855h-6.043v3.021h4.532v4.532h3.021v-6.043a1.511 1.511 0 00-1.511-1.511zm0 0"/><path data-name="パス 342" d="M52.876 37.768v-4.532h-3.021v6.043a1.511 1.511 0 001.511 1.511h6.043v-3.021zm0 0"/><path data-name="パス 343" d="M15.108 49.855a1.511 1.511 0 00-1.511 1.51v6.043h3.021v-4.532h4.532v-3.021zm0 0"/><path data-name="長方形 475" d="M38 49.645h3v6h-3z"/><path data-name="長方形 476" d="M50 49.645h3v6h-3z"/><path data-name="パス 344" d="M37.768 33.236v4.532h-4.532v3.021h6.043a1.511 1.511 0 001.511-1.511v-6.042zm0 0"/></g></svg>