<svg xmlns="http://www.w3.org/2000/svg" width="116.045" height="90.902"><g data-name="グループ 558" fill="#b5c1de"><path data-name="パス 350" d="M13.539 9.67a7.737 7.737 0 00-7.736 7.736v40.616h3.868V17.406a3.868 3.868 0 013.868-3.868h1.934v44.484h3.868V13.538h21.275V9.67zm0 0"/><path data-name="長方形 486" d="M60 9.902h12v4H60z"/><g data-name="グループ 557"><path data-name="長方形 487" d="M52 79.902h41v3H52z"/><path data-name="パス 351" d="M45.396 72.755l-.3-.151a5.316 5.316 0 00-5.147.194l-5.134 3.084V52.22a5.8 5.8 0 00-6.769-5.725 5.966 5.966 0 00-4.835 5.932v9.794a6.03 6.03 0 00-5.8 1.151 5.79 5.79 0 00-7.736 0 3.378 3.378 0 00-.113-.1 5.821 5.821 0 00-4.722-1.306A5.966 5.966 0 00.002 67.9v21.068a1.934 1.934 0 001.934 1.934H32.88a1.926 1.926 0 001.122-.363l12.112-8.647a5.352 5.352 0 00-.719-9.139zm-1.53 6l-11.6 8.283H3.869V67.9a2.1 2.1 0 011.6-2.112 1.934 1.934 0 012.272 1.9 1.934 1.934 0 003.868 0 1.934 1.934 0 113.868 0 1.934 1.934 0 003.868 0 1.934 1.934 0 113.868 0 1.934 1.934 0 003.868 0V52.427a2.1 2.1 0 011.6-2.112 1.934 1.934 0 012.272 1.9v27.077a1.934 1.934 0 002.93 1.657l8.063-4.835a1.468 1.468 0 011.424-.054l.3.151a1.481 1.481 0 01.2 2.532zm0 0"/><path data-name="パス 352" d="M108.309 45.747V17.406a7.736 7.736 0 00-7.736-7.736h-9.67v3.868h3.868v36.748h3.868V13.538h1.934a3.868 3.868 0 013.868 3.868v40.616h3.868V51.98l2.515 3.192a5.818 5.818 0 011.353 3.715v28.144h-10.614a10.859 10.859 0 01.371-12.129l.194-.253a1.934 1.934 0 00-.183-2.514L91.308 61.5a2.172 2.172 0 010-3.068 2.221 2.221 0 013.067 0l12.57 12.572 2.735-2.734-12.572-12.572a6.178 6.178 0 00-8.537 0 6.043 6.043 0 000 8.536l9.5 9.5a14.624 14.624 0 00.989 16.44 1.931 1.931 0 001.512.727h13.539a1.933 1.933 0 001.933-1.934V58.889a9.637 9.637 0 00-2.209-6.151zm0 0"/></g><path data-name="パス 353" d="M90.903 38.682h-3.868V1.934A1.934 1.934 0 0085.101 0h-7.737a1.934 1.934 0 00-1.934 1.934v36.748h-3.868V19.341a1.934 1.934 0 00-1.934-1.934h-7.736a1.934 1.934 0 00-1.934 1.934v19.341H56.09V5.802a1.934 1.934 0 00-1.934-1.934H46.42a1.934 1.934 0 00-1.934 1.934v32.88h-3.868V21.275a1.934 1.934 0 00-1.934-1.934h-7.74a1.934 1.934 0 00-1.934 1.934v17.407h-3.866v3.868h65.759zm-58.023 0V23.21h3.864v15.473zm15.473 0V7.736h3.868v30.945zm15.473 0V21.275h3.868v17.407zm15.473 0V3.868h3.868v34.814zm0 0"/><path data-name="長方形 488" d="M48 45.902h12v4H48z"/><path data-name="長方形 489" d="M39 45.902h6v4h-6z"/><path data-name="長方形 490" d="M79 45.902h12v4H79z"/><path data-name="長方形 491" d="M64 45.902h11v4H64z"/><path data-name="長方形 492" d="M48 53.902h12v4H48z"/><path data-name="長方形 493" d="M39 53.902h6v4h-6z"/><path data-name="長方形 494" d="M79 53.902h4v4h-4z"/><path data-name="長方形 495" d="M64 53.902h11v4H64z"/><path data-name="長方形 496" d="M48 61.902h12v4H48z"/><path data-name="長方形 497" d="M39 61.902h6v4h-6z"/><path data-name="長方形 498" d="M79 61.902h4v4h-4z"/><path data-name="長方形 499" d="M64 61.902h11v4H64z"/><path data-name="長方形 500" d="M52 69.902h8v3h-8z"/><path data-name="長方形 501" d="M79 69.902h12v3H79z"/><path data-name="長方形 502" d="M64 69.902h11v3H64z"/></g></svg>