<svg data-name="グループ 559" xmlns="http://www.w3.org/2000/svg" width="90.918" height="90.586"><path data-name="パス 354" d="M13.638 61.796a1.516 1.516 0 011.515-1.515H25.76v-9.092a1.516 1.516 0 011.515-1.515h10.607v-9.092a1.516 1.516 0 011.515-1.515h10.607v-9.092a1.516 1.516 0 011.515-1.515h10.607v-9.092a1.516 1.516 0 011.515-1.515H74.25V5.729a1.516 1.516 0 011.515-1.515h12.122a1.516 1.516 0 011.515 1.515v75.765h1.515v3.031H0v-3.031h13.638zm3.031 1.515v18.184h9.092V63.311zm12.122-10.607v28.791h9.092V52.704zm12.122-10.607v39.4h9.092v-39.4zM53.035 31.49v50.005h9.092V31.49zm12.122-10.607v60.612h9.092V20.882zM86.373 7.24h-9.092v74.25h9.092zm0 0" fill="#b5c1de"/><path data-name="長方形 503" fill="#b5c1de" d="M54.551 87.555h6.061v3.031h-6.061z"/><path data-name="長方形 504" fill="#b5c1de" d="M66.674 87.555h6.061v3.031h-6.061z"/><path data-name="長方形 505" fill="#b5c1de" d="M78.796 87.555h6.061v3.031h-6.061z"/><path data-name="長方形 506" fill="#b5c1de" d="M42.429 87.555h6.061v3.031h-6.061z"/><path data-name="長方形 507" fill="#b5c1de" d="M30.306 87.555h6.061v3.031h-6.061z"/><path data-name="長方形 508" fill="#b5c1de" d="M18.184 87.555h6.061v3.031h-6.061z"/><path data-name="パス 355" d="M1.515 49.673h8.784l16.976-14.551v-8.178a1.516 1.516 0 011.515-1.515h8.846L51.519 13.86V5.73a1.516 1.516 0 011.515-1.515h8.939L67.24.001l1.894 2.366-5.493 4.394v8.061a1.516 1.516 0 01-1.515 1.515H53.28L39.398 27.91v8.13a1.516 1.516 0 01-1.515 1.515h-8.784L12.123 52.106v8.178a1.516 1.516 0 01-1.515 1.515H7.577v10.607H4.55V61.795H1.519A1.516 1.516 0 01.004 60.28v-9.092a1.516 1.516 0 011.515-1.515zm59.1-42.429H54.55v6.066h6.061zM36.37 28.458h-6.061v6.061h6.061zM3.033 58.764h6.061v-6.061H3.033zm0 0" fill="#b5c1de"/><path data-name="長方形 509" fill="#b5c1de" d="M4.546 75.433h3.031v3.031H4.546z"/></svg>