<svg xmlns="http://www.w3.org/2000/svg" width="91" height="91"><g data-name="グループ 560" fill="#b5c1de"><path data-name="パス 356" d="M80.384 24.267h-36.4a1.517 1.517 0 100 3.033h36.4a1.517 1.517 0 100-3.033zm0 0"/><path data-name="パス 357" d="M63.7 78.867H43.984a1.517 1.517 0 000 3.033h19.717a1.517 1.517 0 000-3.033zm0 0"/><path data-name="パス 358" d="M80.383 42.467H68.25a1.517 1.517 0 100 3.033h12.133a1.517 1.517 0 000-3.033zm0 0"/><path data-name="パス 359" d="M43.984 45.5h18.2a1.517 1.517 0 100-3.033h-18.2a1.517 1.517 0 100 3.033zm0 0"/><path data-name="パス 360" d="M43.984 54.6h12.133a1.517 1.517 0 000-3.033H43.984a1.517 1.517 0 100 3.033zm0 0"/><path data-name="パス 361" d="M80.384 51.567h-18.2a1.517 1.517 0 100 3.033h18.2a1.517 1.517 0 000-3.033zm0 0"/><path data-name="パス 362" d="M66.734 69.767h-22.75a1.517 1.517 0 000 3.033h22.75a1.517 1.517 0 000-3.033zm0 0"/><path data-name="パス 363" d="M43.984 36.4h12.133a1.517 1.517 0 000-3.033H43.984a1.517 1.517 0 100 3.033zm0 0"/><path data-name="パス 364" d="M80.384 33.367h-18.2a1.517 1.517 0 100 3.033h18.2a1.517 1.517 0 000-3.033zm0 0"/><path data-name="パス 365" d="M80.383 60.667H68.25a1.517 1.517 0 100 3.033h12.133a1.517 1.517 0 000-3.033zm0 0"/><path data-name="パス 366" d="M43.984 63.7h18.2a1.517 1.517 0 000-3.033h-18.2a1.517 1.517 0 100 3.033zm0 0"/><path data-name="パス 367" d="M86.45 12.133H37.917a4.555 4.555 0 00-4.55 4.55V86.45a4.5 4.5 0 00.279 1.517h-29.1a1.519 1.519 0 01-1.517-1.517V4.55a1.519 1.519 0 011.517-1.517h3.033v21.233a3.037 3.037 0 003.033 3.033h1.517a3.037 3.037 0 003.033-3.033V7.583a1.517 1.517 0 00-3.033 0v16.683h-1.517V3.033h6.067V22.75a1.517 1.517 0 003.033 0V3.033h37.917a1.519 1.519 0 011.517 1.517v3.033a1.517 1.517 0 103.033 0V4.55A4.555 4.555 0 0057.629 0H4.55A4.555 4.555 0 000 4.55v81.9A4.555 4.555 0 004.55 91H72.8a1.529 1.529 0 001.072-.444l16.683-16.683a1.58 1.58 0 00.425-.977c0-.034.02-.062.02-.1V16.683a4.555 4.555 0 00-4.55-4.55zM74.317 85.822v-9.989a1.519 1.519 0 011.517-1.517h9.989zm13.65-14.539H75.833a4.555 4.555 0 00-4.55 4.55v12.133H37.917a1.52 1.52 0 01-1.517-1.517V16.683a1.52 1.52 0 011.517-1.517H86.45a1.52 1.52 0 011.517 1.517zm0 0"/><path data-name="パス 368" d="M9.1 36.4h12.133a1.517 1.517 0 000-3.033H9.1a1.517 1.517 0 100 3.033zm0 0"/><path data-name="パス 369" d="M27.3 42.467H9.1a1.517 1.517 0 100 3.033h18.2a1.517 1.517 0 100-3.033zm0 0"/><path data-name="パス 370" d="M9.1 54.6h12.133a1.517 1.517 0 000-3.033H9.1a1.517 1.517 0 100 3.033zm0 0"/><path data-name="パス 371" d="M27.3 60.667H9.1a1.517 1.517 0 100 3.033h18.2a1.517 1.517 0 100-3.033zm0 0"/><path data-name="パス 372" d="M9.1 72.8h12.133a1.517 1.517 0 100-3.033H9.1a1.517 1.517 0 000 3.033zm0 0"/><path data-name="パス 373" d="M9.1 81.9h18.2a1.517 1.517 0 000-3.033H9.1a1.517 1.517 0 000 3.033zm0 0"/></g></svg>