<svg xmlns="http://www.w3.org/2000/svg" width="90.839" height="90.825"><g data-name="グループ 562"><g data-name="グループ 561"><path data-name="パス 374" d="M90.672 21.529a4.543 4.543 0 00-8.325-1.09l-.757 1.317a1.514 1.514 0 00-2.058.545l-3.845 6.554-1.317-.757a1.512 1.512 0 10-1.514 2.618l1.317.757-12.867 22.3-3.179 8.493-1.514 2.83a4.541 4.541 0 00.243 4.9l-3.406 4.177-.954-2.391a3.028 3.028 0 00-5.4-.424l-.545.923-.519-6.052a3.027 3.027 0 00-5.888-.711L36.42 76.69a1.513 1.513 0 00.953 1.907 1.315 1.315 0 00.47.121 1.514 1.514 0 001.438-1.028l3.708-11.172.53 6.145a3.028 3.028 0 005.616 1.3l.56-.923.938 2.377a3.027 3.027 0 005.177.772l3.527-4.465a4.661 4.661 0 001.2.151 4.541 4.541 0 003.951-2.241l1.514-2.528 5.767-7.008 13-22.57 1.317.757a1.517 1.517 0 01.56 2.074L80.591 50.85a1.502 1.502 0 102.558 1.574l6.054-10.49a4.54 4.54 0 00-1.665-6.207l-1.317-.757 3.784-6.554a1.515 1.515 0 00-.545-2.059l.757-1.317a4.54 4.54 0 00.454-3.512zm-5.707.423a1.512 1.512 0 01.924-.71 1.59 1.59 0 011.15.151 1.513 1.513 0 01.712.923 1.591 1.591 0 01-.152 1.15l-.757 1.317-2.634-1.514zM64.333 64.217l-.757-.439-2.24-1.3 2.149-5.752 4.768 2.755zm-4.541 4.374a1.513 1.513 0 01-.454-1.983l.757-1.317 2.634 1.514-.757 1.3a1.513 1.513 0 01-2.18.484zm10.188-11.6l-5.237-3.027 12.11-20.981 5.238 3.027zm13.624-23.6l-5.238-3.028 3.027-5.237 5.238 3.027zm0 0" fill="#b5c1de"/></g><path data-name="パス 375" d="M23.886 67.831l-5.357 5.344-3.21-3.21a1.515 1.515 0 10-2.134 2.15l3.209 3.209a3.052 3.052 0 004.284 0l5.343-5.359a1.514 1.514 0 00-2.135-2.134zm0 0" fill="#b5c1de"/><path data-name="パス 376" d="M6.059 71.903a12.867 12.867 0 0025.733 0 1.514 1.514 0 10-3.028 0 9.841 9.841 0 11-3.936-7.871 1.514 1.514 0 001.817-2.423A12.867 12.867 0 006.059 71.903zm0 0" fill="#b5c1de"/><path data-name="パス 377" d="M54.494 12.11a1.514 1.514 0 000-3.028H15.136a1.514 1.514 0 00-1.514 1.514v6.055a1.513 1.513 0 001.514 1.513h39.356a1.514 1.514 0 100-3.027H16.651V12.11zm0 0" fill="#b5c1de"/><path data-name="パス 378" d="M19.681 21.193a1.514 1.514 0 000 3.027h30.275a1.514 1.514 0 100-3.027zm0 0" fill="#b5c1de"/><path data-name="パス 379" d="M59.035 31.789h-33.3a1.514 1.514 0 100 3.027h33.3a1.514 1.514 0 100-3.027zm0 0" fill="#b5c1de"/><path data-name="パス 380" d="M43.898 42.385a1.514 1.514 0 00-1.514-1.514H12.109a1.514 1.514 0 000 3.027h30.275a1.513 1.513 0 001.514-1.513zm0 0" fill="#b5c1de"/><path data-name="パス 381" d="M59.036 40.871h-10.6a1.514 1.514 0 100 3.027h10.6a1.514 1.514 0 100-3.027zm0 0" fill="#b5c1de"/><path data-name="パス 382" d="M27.247 51.468a1.514 1.514 0 000-3.028H12.109a1.514 1.514 0 000 3.028zm0 0" fill="#b5c1de"/><path data-name="パス 383" d="M33.302 51.468h10.6a1.514 1.514 0 100-3.028h-10.6a1.514 1.514 0 000 3.028zm0 0" fill="#b5c1de"/><path data-name="パス 384" d="M68.118 69.632a1.514 1.514 0 00-1.513 1.514v15.138a1.513 1.513 0 01-1.514 1.513H4.541a1.513 1.513 0 01-1.514-1.513V4.541a1.514 1.514 0 011.514-1.509H65.09a1.514 1.514 0 011.514 1.513v28.429a1.514 1.514 0 103.027 0V4.541A4.542 4.542 0 0065.09 0H4.541A4.542 4.542 0 000 4.541v81.742a4.541 4.541 0 004.541 4.541H65.09a4.542 4.542 0 004.541-4.541V71.146a1.514 1.514 0 00-1.514-1.514zm0 0" fill="#b5c1de"/></g></svg>