<svg xmlns="http://www.w3.org/2000/svg" viewBox="0 0 199.1 176.05"><g data-name="レイヤー 2"><path d="M2.6 91.45a4.3 4.3 0 003.8 2.3 4.42 4.42 0 003.3-1.5 6.91 6.91 0 001.4-4.5v-.2a6.63 6.63 0 00-1.4-4.4 4.27 4.27 0 00-3.3-1.5 4.44 4.44 0 00-3.8 2.4v-6.8H1v16.2h1.7v-2zm0-3.9c0-2.8 1.8-4.5 3.5-4.5s3.3 1.4 3.3 4.5v.2c0 3.1-1.7 4.5-3.3 4.5-2.2 0-3.5-2.3-3.5-4.5zm-.9 28.2H43v-1H1.7zM146.9 134h-1.6v3.2H144v1.4h1.3v7a2.47 2.47 0 002.7 2.7 2.93 2.93 0 001.6-.4v-1.4a3.45 3.45 0 01-1.3.3 1.33 1.33 0 01-1.5-1.5v-6.7h2.8v-1.4h-2.8V134zm-13.7-1.1h-1.6V148h1.6zM13.9 161.65c-2.8 0-4.9 2.4-4.9 5.6v.2a6.09 6.09 0 001.4 4 4.63 4.63 0 003.5 1.6c2.8 0 4.9-2.4 4.9-5.6v-.1a6.09 6.09 0 00-1.4-4 4.4 4.4 0 00-3.5-1.7zm3.3 5.8c0 2.4-1.4 4.2-3.3 4.2s-3.3-1.8-3.3-4.2v-.1c0-2.4 1.4-4.2 3.2-4.2s3.3 1.8 3.3 4.2v.1zm-14.3-8.7H1.3V162H0v1.4h1.3v7a2.47 2.47 0 002.7 2.7 2.93 2.93 0 001.6-.4v-1.4a3.45 3.45 0 01-1.3.3 1.33 1.33 0 01-1.5-1.5v-6.7h2.8V162H2.9zm13.9-63.3a2.82 2.82 0 01-1.5-.4l-.5 1.4a4.06 4.06 0 002.1.5.37.37 0 00.3-.1.9.9 0 00.5-.1.76.76 0 00.5-.2c.2-.1.3-.2.5-.3l.4-.4a1.38 1.38 0 00.3-.4 3.13 3.13 0 00.5-1 .31.31 0 01.1-.2 4.88 4.88 0 00.3-.7l4.1-11.9h-1.8l-3.1 9.5-3.5-9.5h-1.8l4.5 11.7c-.5 1.65-1 2.1-1.9 2.1zm120.3 75.3l-3.2-8.8h-1.7l4.2 10.9c-.5 1.3-1 1.8-1.8 1.8a2.5 2.5 0 01-1.4-.4l-.5 1.3a4.55 4.55 0 002 .5.37.37 0 00.3-.1.6.6 0 00.4-.1.76.76 0 00.5-.2c.1-.1.3-.2.4-.3l.4-.4c.1-.1.2-.2.2-.3a3.13 3.13 0 00.5-1 4.88 4.88 0 00.3-.7l3.8-11H140zM5.2 141.65l3.8-4.5v-.1H7.2L2.4 143v-10H.8v15.1h1.6v-3l1.8-2.1 3.2 5.1h1.8zM157.9 146l-3.2-8.8H153l4.2 10.9c-.5 1.3-1 1.8-1.8 1.8a2.5 2.5 0 01-1.4-.4l-.5 1.3a4.55 4.55 0 002 .5.37.37 0 00.3-.1.6.6 0 00.4-.1.76.76 0 00.5-.2c.1-.1.3-.2.4-.3l.4-.4c.1-.1.2-.2.2-.3a4.05 4.05 0 00.5-.9v-.1a4.88 4.88 0 00.3-.7l3.8-11h-1.7zm-18 2v-10.9h-1.6V148zm-27-64.3v-1.8h-1.7v11.7h1.7v-7.1a3 3 0 012.9-3.3c1.7 0 2.7 1.2 2.7 3.2v7.2h1.7v-7.7c0-2.6-1.5-4.3-3.8-4.3a3.75 3.75 0 00-3.5 2.05zm27.1 49.4h-1.7v1.8h1.7zm-123.6 3.8c-2.6 0-4.5 2.4-4.5 5.7v.1a6.17 6.17 0 001.4 4.1 4.48 4.48 0 003.4 1.5 4.85 4.85 0 003.7-1.6l-.9-1a3.45 3.45 0 01-2.8 1.2h-.3c-.2 0-.4-.1-.6-.1s-.3-.1-.5-.2a2.09 2.09 0 01-.6-.4l-.4-.4c-.1-.2-.3-.4-.4-.6a4.88 4.88 0 01-.3-.7c-.1-.3-.1-.5-.2-.8a.76.76 0 00-.1-.4h7.3v-.6c.2-3.65-1.5-5.85-4.2-5.85zm-2.9 5.1c.2-2.2 1.3-3.7 2.9-3.7s2.7 1.4 2.8 3.7zm26.1-48.2a3.83 3.83 0 003.5-1.9v1.6h1.7v-7.4a4.77 4.77 0 00-1.1-3.2 4.46 4.46 0 00-3.3-1.2 9.58 9.58 0 00-3.7.9l.5 1.4a6.74 6.74 0 013-.8 2.59 2.59 0 012.9 2.9v.6a10.94 10.94 0 00-3-.5c-2.7 0-4.3 1.5-4.3 3.8v.1a3.7 3.7 0 003.8 3.65zM37.5 90c0-1.5 1.1-2.4 2.9-2.4a8.68 8.68 0 012.8.5v1.4a3 3 0 01-3.2 2.9 2.29 2.29 0 01-2.5-2.4zm35.8-8.1h-1.7v7.7c0 2.6 1.5 4.3 3.8 4.3a3.79 3.79 0 003.4-2v1.8h1.7V81.85h-1.7v7.2a3 3 0 01-2.9 3.3c-1.7 0-2.7-1.2-2.7-3.2v-7.3zm28.1 11.9a3.83 3.83 0 003.5-1.9v1.6h1.6v-7.4a4.77 4.77 0 00-1.1-3.2 4.46 4.46 0 00-3.3-1.2 9.13 9.13 0 00-3.7.9l.5 1.4a6.74 6.74 0 013-.8 2.66 2.66 0 013 2.9v.6a10.94 10.94 0 00-3-.5c-2.7 0-4.3 1.5-4.3 3.8v.1a3.59 3.59 0 003.8 3.65zM99.3 90c0-1.5 1.1-2.4 2.9-2.4a8.68 8.68 0 012.8.5v1.4a3 3 0 01-3.2 2.9 2.29 2.29 0 01-2.5-2.4zm-24.8 51.3v6.7H76v-7.1c0-2.5-1.4-4-3.6-4a3.51 3.51 0 00-3.2 1.9v-5.9h-1.6V148h1.6v-6.6a2.8 2.8 0 012.7-3.1c1.7-.05 2.6 1.05 2.6 2.95zm3.4 20.4a4 4 0 00-3.5 2.2v-6.2h-1.6v15.1h1.6v-1.9a4.07 4.07 0 003.5 2.1 3.89 3.89 0 003-1.4 5.94 5.94 0 001.3-4.1v-.2a6.48 6.48 0 00-1.3-4.1 3.83 3.83 0 00-3-1.55zm2.8 5.8c0 2.9-1.5 4.2-3.1 4.2-2 0-3.3-2.1-3.3-4.1v-.2c0-2.6 1.7-4.2 3.3-4.2s3.1 1.3 3.1 4.2zm-16.1-88h1.9v-2h-1.9zm.1 14.5c0 1.1-.4 1.6-1.3 1.6a1.7 1.7 0 01-.7-.1v1.4a3.08 3.08 0 001 .1c1.8 0 2.7-1 2.7-2.9V81.85h-1.7zm53 74.6a2.8 2.8 0 01-2.7 3.1c-1.6 0-2.5-1.1-2.5-3V162h-1.6v7.2c0 2.4 1.4 4 3.6 4a3.51 3.51 0 003.2-1.9v1.7h1.6v-11.1h-1.6zm-15.5-6.8a6.82 6.82 0 00-3.4.9l.5 1.3a5.55 5.55 0 012.8-.7 2.39 2.39 0 012.7 2.7v.6a9.82 9.82 0 00-2.8-.4c-2.5 0-4 1.4-4 3.5a3.39 3.39 0 003.5 3.4 4 4 0 003.3-1.7v1.5h1.5v-7a4.5 4.5 0 00-1-3 4.33 4.33 0 00-3.1-1.15zm2.6 7.3a2.8 2.8 0 01-2.9 2.7 2.18 2.18 0 01-2.3-2.2v-.1c0-1.4 1-2.2 2.7-2.2a7.46 7.46 0 012.6.4v1.4zM60.6 134H59v3.2h-1.3v1.4H59v7a2.47 2.47 0 002.7 2.7 2.93 2.93 0 001.6-.4v-1.4a3.45 3.45 0 01-1.3.3 1.33 1.33 0 01-1.5-1.5v-6.7h2.8v-1.4h-2.8V134zm29.1-42.6l-3.2-9.5h-1.8L89 93.65h1.5l4.3-11.8H93zm12.9 45.6a6.82 6.82 0 00-3.4.9l.5 1.3a5.55 5.55 0 012.8-.7 2.39 2.39 0 012.7 2.7v.5a9.82 9.82 0 00-2.8-.4c-2.5 0-4 1.4-4 3.5v.1a3.39 3.39 0 003.5 3.4 4 4 0 003.3-1.7v1.5h1.5v-7a4.7 4.7 0 00-1-3 4.08 4.08 0 00-3.1-1.1zm2.6 7.2a2.8 2.8 0 01-2.9 2.7 2.18 2.18 0 01-2.3-2.2c0-1.4 1-2.2 2.7-2.2a7.46 7.46 0 012.6.4v1.3zm-16.8 2.4l-.9-1a4 4 0 01-2.8 1.2h-.3c-.2 0-.4-.1-.6-.1s-.3-.1-.5-.2a2.09 2.09 0 01-.6-.4l-.4-.4c-.1-.2-.3-.4-.4-.6a4.88 4.88 0 01-.3-.7c-.1-.3-.1-.5-.2-.8a.76.76 0 00-.1-.4h7.3v-.6c0-3.4-1.7-5.6-4.4-5.6s-4.5 2.4-4.5 5.7a6 6 0 001.4 4.1 4.48 4.48 0 003.4 1.5 5 5 0 003.9-1.75zm-4.1-8.3c1.6 0 2.7 1.4 2.8 3.7h-5.7c.1-2.25 1.3-3.75 2.9-3.75zm5.8 23.4c-2.6 0-4.5 2.4-4.5 5.7v.1a6.17 6.17 0 001.4 4.1 4.48 4.48 0 003.4 1.5 5.22 5.22 0 003.8-1.6l-.9-1a3.45 3.45 0 01-2.8 1.2h-.3c-.2 0-.4-.1-.6-.1s-.4-.1-.5-.2a2.09 2.09 0 01-.6-.4l-.4-.4c-.1-.2-.3-.4-.4-.6a4.88 4.88 0 01-.3-.7c-.1-.3-.1-.5-.2-.8a.76.76 0 00-.1-.4h7.3v-.6c.1-3.65-1.6-5.85-4.3-5.85zm-2.9 5.1c.1-2.2 1.3-3.7 2.9-3.7s2.7 1.4 2.8 3.7zm39-8h-1.6v3.2h-1.3v1.4h1.3v7a2.47 2.47 0 002.7 2.7 2.93 2.93 0 001.6-.4v-1.4a3.45 3.45 0 01-1.3.3 1.33 1.33 0 01-1.5-1.5v-6.7h2.8V162h-2.8v-3.2zm-68.6 2.9c-2.6 0-4.5 2.4-4.5 5.7v.1a6.17 6.17 0 001.4 4.1 4.48 4.48 0 003.4 1.5 5.22 5.22 0 003.8-1.6l-.9-1a4 4 0 01-2.8 1.2h-.3c-.2 0-.4-.1-.6-.1s-.3-.1-.5-.2a2.09 2.09 0 01-.6-.4l-.4-.4c-.1-.2-.3-.4-.4-.6a4.88 4.88 0 01-.3-.7c-.1-.3-.1-.5-.2-.8a.76.76 0 00-.1-.4H62v-.6c0-3.65-1.7-5.85-4.4-5.85zm-2.9 5.1c.2-2.2 1.3-3.7 2.9-3.7s2.7 1.4 2.8 3.7zm-9.1-20a5.94 5.94 0 001.3-4.1v-.2a6.48 6.48 0 00-1.3-4.1 4.05 4.05 0 00-3-1.4 4 4 0 00-3.5 2.2v-2h-1.6v14h1.6v-5.1a4.07 4.07 0 003.5 2.1 3.75 3.75 0 003-1.45zm-6.5-4.1v-.2c0-2.6 1.7-4.2 3.3-4.2s3 1.3 3 4.2v.2c0 2.9-1.5 4.2-3 4.2s-3.3-1.55-3.3-4.25zm-6 3.9l-.9-1a3.78 3.78 0 01-2.8 1.2h-.3c-.2 0-.4-.1-.6-.1s-.3-.1-.5-.2a2.09 2.09 0 01-.6-.4l-.4-.4c-.1-.2-.3-.4-.4-.6a4.88 4.88 0 01-.3-.7c-.1-.3-.1-.5-.2-.8a.76.76 0 00-.1-.4h7.3v-.6c0-3.4-1.7-5.6-4.4-5.6s-4.5 2.4-4.5 5.7a6 6 0 001.4 4.1 4.48 4.48 0 003.4 1.5 5 5 0 003.9-1.75zm-4.1-8.3c1.6 0 2.7 1.4 2.8 3.7h-5.7c.1-2.25 1.3-3.75 2.9-3.75zm97.6-5.2h-1.7v1.8h1.7zm-92.8 33.5c-1.5-.6-2.4-1.1-2.4-2a1.62 1.62 0 011.8-1.5 4.32 4.32 0 012.7 1l.7-1.2a6.37 6.37 0 00-3.4-1.2c-.1 0-.3.1-.4.1a1.27 1.27 0 00-.6.1c-.2.1-.5.1-.7.2s-.3.2-.5.3a2.18 2.18 0 00-.5.4c-.1.1-.2.3-.3.4a1.69 1.69 0 00-.2.5v.8c0 .1-.1.2-.1.3 0 1.7 1.3 2.4 3.1 3.2 1.5.6 2.3 1.1 2.3 2a1.77 1.77 0 01-2 1.7 4.49 4.49 0 01-3.1-1.3l-.8 1.1a5.78 5.78 0 003.9 1.5c2.1 0 3.6-1.3 3.6-3.2 0-1.75-1.4-2.45-3.1-3.25zm92.7-18.6v-10.9h-1.6V148zm-10-11.1a4 4 0 00-3.5 2.2v-6.2h-1.6V148h1.6v-1.9a4.07 4.07 0 003.5 2.1 3.89 3.89 0 003-1.4 5.94 5.94 0 001.3-4.1v-.2a6.48 6.48 0 00-1.3-4.1 3.69 3.69 0 00-3-1.55zm2.8 5.8c0 2.9-1.5 4.2-3.1 4.2s-3.3-1.4-3.3-4.1v-.2c0-2.6 1.7-4.2 3.3-4.2s3.1 1.3 3.1 4.2zm-74.2 19c-2.6 0-4.5 2.4-4.5 5.7v.1a6.17 6.17 0 001.4 4.1 4.48 4.48 0 003.4 1.5 5.22 5.22 0 003.8-1.6l-.9-1a3.45 3.45 0 01-2.8 1.2h-.3c-.2 0-.4-.1-.6-.1s-.3-.1-.5-.2a2.09 2.09 0 01-.6-.4l-.4-.4c-.1-.2-.3-.4-.4-.6a4.88 4.88 0 01-.3-.7c-.1-.3-.1-.5-.2-.8a.76.76 0 00-.1-.4h7.3v-.6c0-3.65-1.7-5.85-4.3-5.85zm-3 5.1c.1-2.2 1.3-3.7 2.9-3.7s2.7 1.4 2.8 3.7zm15.5-75.4v2.2h1.7V77.25h-1.7v6.6a4.42 4.42 0 00-3.8-2.3 4.07 4.07 0 00-3.2 1.5 6.4 6.4 0 00-1.4 4.5v.2c0 4.1 2.4 6 4.7 6a4.3 4.3 0 003.7-2.4zm-6.8-3.6v-.2c0-2.7 1.3-4.5 3.3-4.5 1.7 0 3.5 1.6 3.5 4.5v.2c0 2.9-1.8 4.5-3.5 4.5-1.5-.05-3.3-1.45-3.3-4.55zm76.6-9.4h-1.7v3.4h-1.4v1.5h1.4v7.5a2.59 2.59 0 002.9 2.9 3.92 3.92 0 001.8-.4v-1.5a3.53 3.53 0 01-1.4.3 1.39 1.39 0 01-1.6-1.6v-7.2h3v-1.4h-3zm-112.5-45h-1.4a4.28 4.28 0 01-2.2-.6 2.4 2.4 0 01-1-1 11.11 11.11 0 01-.3-3.3V18.2h6a5.67 5.67 0 012.5.4 3.25 3.25 0 011.3 1.3 6.35 6.35 0 01.5 2.8v.2h1.2V11.2h-1.3v.1c-.2 1.8-.6 3-1.3 3.6a4.14 4.14 0 01-3 .9h-6V2.9h7.3a12.72 12.72 0 013.9.5 5.11 5.11 0 012.1 1.5 8.34 8.34 0 011.5 3.4v.1h1.2L25.6.7H0V2h1.4a4.28 4.28 0 012.2.6 2.4 2.4 0 011 1 11.11 11.11 0 01.3 3.3v21.7c0 2-.2 3.2-.6 3.7a3.43 3.43 0 01-2.9 1.2H0v1.3h14.9zm75.8 0h-.2a7.34 7.34 0 01-3.1-.7 1.55 1.55 0 01-.7-1.2 9.84 9.84 0 01.8-2.9l2.3-5.2h12.9l2 4.7a9.09 9.09 0 011 3.4 1.31 1.31 0 01-.7 1.2 3.93 3.93 0 01-2.6.6h-.2v1.2h13.7v-1.2h-.2a4.82 4.82 0 01-3.1-1.1c-.8-.6-1.6-2.1-2.5-4.3L98.4.1V0h-1.1l-12 27.7a15.73 15.73 0 01-2.8 4.8 5.15 5.15 0 01-2.7.9h-.1v1.2h11zm5.8-25.1l5.5 13H90.8zm28.2-6.1a6.48 6.48 0 012.2 1 14.51 14.51 0 012.2 2.2v23.3a8.17 8.17 0 01-.5 3.5 3.31 3.31 0 01-2.9 1.2h-1.3v1.3h12.1v-1.3h-1.4a3.43 3.43 0 01-2.8-1c-.4-.5-.6-1.7-.6-3.7V8.5l22.1 26.7.1.1h1.2V6.7a8.17 8.17 0 01.5-3.5 3.31 3.31 0 012.9-1.2h1.4V.7h-12.4V2h1.3a3.43 3.43 0 012.8 1c.4.5.7 1.7.7 3.7v18.9L131.8.8l-.1-.1h-9.5V2h.2a11.32 11.32 0 012.3.2zM53.6 33.4h-1.5a3.34 3.34 0 01-2.7-1c-.4-.5-.7-1.8-.7-3.8V19H52l11.5 15.6.1.1h9.3v-1.2h-.2a10.38 10.38 0 01-4.4-1.4 17.9 17.9 0 01-4.1-4.4l-6.8-9.4a11.12 11.12 0 006.1-3.2 7.88 7.88 0 002.1-5.5 7.57 7.57 0 00-1.8-5.1 9.21 9.21 0 00-4.4-2.9 30.59 30.59 0 00-8-.8H38.8v1.3h1.4a3.56 3.56 0 012.8 1c.3.3.7 1.3.7 3.8v21.7c0 2.3-.3 3.2-.5 3.5a3.13 3.13 0 01-2.9 1.3h-1.4v1.3h14.9v-1.3zm-4.8-30a20.39 20.39 0 013.8-.4 6.71 6.71 0 015.1 1.9 6.63 6.63 0 011.9 5 6.59 6.59 0 01-2.4 5.2c-1.6 1.4-4 2-7.2 2h-1.3V3.4zm149.1 21.9v.1c-.9 2.8-1.9 4.6-3 5.5a7.42 7.42 0 01-4.8 1.3h-13.6L198.6.9l.2-.3h-25.6l-.7 8.6v.2h1.3v-.1a13.29 13.29 0 011.1-4.1 4 4 0 011.8-1.6 9.08 9.08 0 013.8-.6H191l-21.5 30.5v1.1h27.9l1.7-9.2-1.2-.1z" data-name="レイヤー 1"/></g></svg>