<svg id="logo" xmlns="http://www.w3.org/2000/svg" width="284.344" height="70"><defs><style>.cls-1{fill:#1a1a1a;fill-rule:evenodd}</style></defs><path id="曹洞宗" class="cls-1" d="M102.009 37.686a.368.368 0 01.282.375q0 2.72-.094 4.875h-.844l-3.656.656-.187-2.719.469.188q2.061-.373 3.188-.562c.375-.062.5-.249.375-.562a2.787 2.787 0 00-1.5-.281l-.563.469-1.969.469-.094-2.062zm.657-.937a.926.926 0 00-.938.281l-4.312.844A5.13 5.13 0 0196.1 37.5q-.47-.187-.281.281l.281 1.03.1 4.781A2.566 2.566 0 0097.134 45q.281.187.656-.75l3.281-.469a.918.918 0 01.937.281c.249.312.469.593.657.844.124.124.281.094.468-.094a3.224 3.224 0 00.563-1.125l.375-5.156c.375-.437.436-.75.187-.937a5.612 5.612 0 00-1.593-.844zm-2.625-14.156a.808.808 0 00.281.563 1.269 1.269 0 01.469.844v1.313l-2.344.469q0-.373.094-1.312-.189-.749-1.969-1.219-.844 0-.187.656c.124.188.281.407.469.656a8.606 8.606 0 01.094 1.5l-4.312.844c-.187.063-.22.157-.094.281a4.844 4.844 0 001.031.281q1.593-.373 3.375-.656l.094 2.156q-2.344.47-4.312.75-.844-.092-1.312-.187c-.187 0-.251.094-.187.281l.469.56 1.688 5.25a1.927 1.927 0 001.212 1.125.6.6 0 00.375-.469q5.344-.936 7.5-1.219a11.531 11.531 0 011.781-.187 8.874 8.874 0 01.938.656q.563.281 1.125-.656.563-1.217 1.312-3.187a20.321 20.321 0 01.938-2.437.483.483 0 00.187-.75 6.179 6.179 0 00-1.875-1.125.653.653 0 00-.656.188l-4.031.656.187-2.25q1.218-.187 2.813-.281l1.406-.094a.552.552 0 00.469-.281.6.6 0 00-.375-.656 5.447 5.447 0 00-2.063-.375.763.763 0 00-.468.281 6.8 6.8 0 01-1.782.469l.188-1.125c.187-.312.061-.593-.375-.844a8.9 8.9 0 00-1.406-.656c-.5-.061-.75 0-.75.188zm-3 7.125l.094 2.156-2.437.469q-.281.189.094.375a3.01 3.01 0 00.75.188q.936-.187 1.594-.281l.094 2.531a19.189 19.189 0 01-2.437.375L93.1 30.373zm8.718-1.219a.656.656 0 01.75.563 9.587 9.587 0 01-.468 2.156q-.562 1.782-1.125 3.182l-.844-.469-2.063.375.094-2.625 2.344-.187c.249 0 .375-.094.375-.281q.091-.468-1.406-.844a.912.912 0 00-.469.188l-.844.281.094-1.875zm-7.312 3.844q1.312-.281 2.344-.469V34.5l-2.344.375v-2.533zm2.344-3.187v1.969l-2.344.469v-2.065zm0-3V28.4l-2.344.375v-2.25zm29.718-1.781a2.444 2.444 0 00-.656.375q-1.5.376-3.281.844-2.25.376-4.875.844a2.328 2.328 0 01-1.031-.281q-.562-.187-.282.281a2.756 2.756 0 01.188 1.031q.091 1.5-.094 5.156-.189 2.626-.375 5.438a10.239 10.239 0 01-.469 1.875 3.967 3.967 0 00.657 1.875q.936.749 1.312-.469v-3.096q.188-2.342.188-11.062 4.029-.749 7.968-1.5a.626.626 0 01.657.75v3.938q0 4.781-.094 9.563a.573.573 0 01-.656.375 8.936 8.936 0 01-2.157-.375q-.375.095-.093.281a13.377 13.377 0 011.968 1.313 6.826 6.826 0 011.219 1.406q.373.749.844 0a6.247 6.247 0 00.75-2.437 57.5 57.5 0 01-.188-7.312q.093-4.03.094-6.281a2.5 2.5 0 01.188-.937q.373-.468 0-.75a9.693 9.693 0 00-1.782-.844zm-2.809 7.217a1.678 1.678 0 00-1.031.469q-1.6.47-3.094.938a3.472 3.472 0 01-.844.094c-.313 0-.344.126-.094.375a26.413 26.413 0 011.219 2.719.612.612 0 00.563.469.879.879 0 00.562-.469l1.688-.375q.468.844 1.125.188a28.187 28.187 0 001.031-2.906c.375-.249.436-.437.187-.562a3.556 3.556 0 00-1.312-.937zm-3.844 1.875q1.407-.373 2.813-.75a.338.338 0 01.468.375 9.942 9.942 0 01-.375 1.875q-.937.281-2.062.656a9.21 9.21 0 00-.656-1.969zm-5.437.281q-2.158 3.375-4.032 5.906-.937-.281-.843.469a5.149 5.149 0 00.937 1.5q.656.844.938.188a3.553 3.553 0 01.281-.75q1.5-3.28 3-7.219c-.063-.249-.157-.281-.281-.094zm-2.438-9.375c-.375 0-.438.126-.187.375a9.134 9.134 0 002.437 1.969q1.031.189.75-.844a2.847 2.847 0 00-1.125-1.406 5.822 5.822 0 01-1.875-.094zm10.969 4.594a22.942 22.942 0 01-3.938 1.219q-.562.281.657.469a41.74 41.74 0 014.968-.937q.75-.468-.093-.937a3.306 3.306 0 00-1.032-.187 4.162 4.162 0 00-.562.375zm-10.594.938q-1.125-.187-2.156-.375-.562 0-.188.469a5.322 5.322 0 002.25 1.781.623.623 0 00.844-.562 2.792 2.792 0 00-.75-1.312zm37.031 2.531l-.375.188a5.924 5.924 0 01-.656.375 102.268 102.268 0 00-12.937 2.344q-.282.189.093.375a2.316 2.316 0 00.938.375q1.311-.281 6-1.312a3.613 3.613 0 01.469 1.406v3.75a11.06 11.06 0 01-.094 1.313c0 .251-.22.344-.656.281l-1.969-.375c-.126 0-.126.063 0 .188a27.466 27.466 0 012.344 2.25 1.969 1.969 0 00.75.844q.373.187.937-1.125a3.124 3.124 0 00.281-1.406v-1.315q0-2.155-.093-3c0-.437-.033-1.219-.094-2.344a1.28 1.28 0 00-.563-.75q1.781-.092 4.032-.281a18.307 18.307 0 011.968.094 13.938 13.938 0 011.688.094q.936-.281.281-1.031a4.449 4.449 0 00-2.344-.937zm-2.062 4.313c-.188-.062-.281 0-.281.188a35.951 35.951 0 003.468 3.844q.936.938 1.407 0a1.626 1.626 0 00-.282-1.312 5.454 5.454 0 00-1.031-1.312q-1.687-.749-3.281-1.406zm-5.25-14.062c-.314 0-.375.25-.188.75a1.074 1.074 0 01.375.375 1.476 1.476 0 01.375.563 10.216 10.216 0 01.188 2.156l-6.094.938-.094-1.312c-.063-.124-.156-.124-.281 0a3.715 3.715 0 01-.469 1.313l-1.406 1.875a3.3 3.3 0 00.188 1.219q.373.844.656.75.468.189.937-.844a19.416 19.416 0 00.469-2.344l1.5-.187q3.468-.468 6.75-.937 3.094-.468 5.813-.656a.336.336 0 01.187.469l-1.594 1.969q-.094.281.188.281l2.531-1.125a2.085 2.085 0 011.125-.187 2.351 2.351 0 00.938 0 .249.249 0 00.281-.281 2.016 2.016 0 00-1.125-1.312 4.109 4.109 0 00-1.781-1.031 3.518 3.518 0 01-.469.188l-6.656.938a12.387 12.387 0 01.281-2.062.716.716 0 00-.094-.656 2.36 2.36 0 00-1.031-.562 4.826 4.826 0 00-1.5-.281zm3.469 6.281a1.973 1.973 0 00-.844.563q-3 .752-5.813 1.313-.28.189 0 .281a2.316 2.316 0 00.938.375 53.965 53.965 0 017.125-1.125 1.178 1.178 0 00.562-.281.409.409 0 00-.093-.562 8.638 8.638 0 00-1.875-.562zm-6.75 8.531c-.126-.375-.251-.437-.375-.187a6.8 6.8 0 01-1.688 2.063 1.645 1.645 0 00-.656.656 2.6 2.6 0 00-.188 1.125q.188.938.844.844a1.555 1.555 0 001.125-1.031 7.018 7.018 0 00.938-3.469z"/><path id="長久寺" class="cls-1" d="M200.416 17.608a.81.81 0 00-.563.281l-.562.563a66.414 66.414 0 01-7.172 1.688 11.33 11.33 0 00-1.406-.562 3.157 3.157 0 00-.985.141.813.813 0 00.141.984 4.45 4.45 0 00.562.7 12.344 12.344 0 01.141 1.688l.141 10.409q-4.641.985-8.579 1.828c-.657 0-.843.189-.562.563a12.765 12.765 0 001.687.7q1.125-.138 5.344-1.125a.958.958 0 01.281.7q0 6.328-.14 8.156a10.051 10.051 0 01-.563 2.531 10.5 10.5 0 00.844 2.391c.563 1.03.936 1.312 1.125.844a12.552 12.552 0 01.984-1.406q3.515-2.811 6.75-5.2c.093-.187 0-.281-.281-.281q-2.954 1.127-6.328 2.391-.705.142-.562-.844.138-4.219.281-8.437a7.636 7.636 0 00-.7-1.125q3.091-.7 7.875-1.406a64.429 64.429 0 019-.562h3.515a.807.807 0 00.563-1.266 8.406 8.406 0 00-3.656-1.547 2.316 2.316 0 00-1.547.844q-6.471.705-13.219 1.828v-3.235a8.735 8.735 0 001.406.141q3.936-.7 6.891-.984 1.266-.422.562-1.125a5.047 5.047 0 00-2.531-.844 6.275 6.275 0 00-.844.563 18.381 18.381 0 01-5.484 1.125l.141-2.672a28.449 28.449 0 003.8-.562q2.532-.422 4.219-.7c.749-.187.985-.514.7-.984a4.61 4.61 0 00-2.531-.984.807.807 0 00-.562.281 6.046 6.046 0 01-.844.563 25.612 25.612 0 01-4.781 1.125l-.145-3.385 4.781-.844q3.091-.422 5.625-.844c.374-.281.374-.655 0-1.125a12.779 12.779 0 00-2.812-.984zm.7 17.156c-.752-.092-.938.141-.563.7l.141.422q-.845.844-3.234 2.813-1.971-1.4-4.079-2.672a1.7 1.7 0 00-1.125-.141q-.421.142 0 .563a7.951 7.951 0 01.985.422q1.688 1.407 3.094 2.813-1.408 1.266-2.813 2.391-.283.422.422.281.843-.422 3.516-1.687 4.92 4.782 7.875 7.594a2.916 2.916 0 001.687.281c.655 0 1.5-.048 2.531-.141q1.266-.142 3.938-.7c.281-.095.327-.281.14-.562a55.074 55.074 0 01-7.312-2.812 51.422 51.422 0 01-7.031-4.5l4.218-2.531q2.111-.422-.281-1.828a6.924 6.924 0 00-2.109-.7zm27.562-15.75c-.47-.187-.7-.092-.7.281a2.427 2.427 0 00.7 1.266.815.815 0 01-.14.984q-2.252 5.2-8.438 11.672c-.189.376-.094.47.281.281a37.041 37.041 0 008.157-6.75 3.311 3.311 0 001.406.422l.7-.281 3.375-.562c.468-.092.563.095.281.563q-8.015 13.078-16.875 19.547c-.281.47-.189.611.282.422q6.607-3.092 14.343-11.672a83.586 83.586 0 019 11.813l.563.422a36.717 36.717 0 006.469-.281c.186 0 .843-.092 1.968-.281.374 0 .422-.141.141-.422a34.139 34.139 0 01-12.8-7.875q-2.814-2.67-4.781-4.219 2.67-3.375 6.328-8.3c.373-.187.422-.468.141-.844q-2.532-1.826-2.954-1.687a7.37 7.37 0 01-1.125.7 18.946 18.946 0 01-5.484 1.266l1.547-1.969a2.385 2.385 0 01.7-.7q.422-.7-.562-2.25a6.22 6.22 0 00-2.532-1.547zM266.65 16.9q-.986 0-.281 1.406a2.594 2.594 0 01.844 2.109v2.953q-3.375.705-6.469 1.406-.986.142-.422.563a12.779 12.779 0 001.687.7 31.787 31.787 0 015.2-1.266q.138 2.251.14 4.5-5.484 1.266-10.969 2.391l-2.812.563q-.7 0-.281.422a10.367 10.367 0 001.968 1.125 13.25 13.25 0 012.11-.7 128.957 128.957 0 0113.078-2.812 1.293 1.293 0 01.844.984q.138 1.407.14 2.953-7.593 1.549-14.062 3.094-.986.142 1.969 1.266a81.471 81.471 0 0112.093-2.953q.14 3.375.141 8.719 0 2.393-1.266 2.25a12.341 12.341 0 01-3.656-.562q-.564 0-.281.422 2.109 1.266 4.078 2.672a13.958 13.958 0 011.687 1.688q.561.7 1.407-1.406a10.455 10.455 0 00.7-2.812 107.5 107.5 0 01-.281-11.25 43.208 43.208 0 016.468-.281q.845-.28.141-1.125a9.532 9.532 0 00-2.953-1.406 1.935 1.935 0 00-1.406.563 12.706 12.706 0 01-2.25.7V31.67a2.526 2.526 0 00-1.407-1.687q3.375-.28 6.75-.281 2.813 0 4.219.141 1.4-.7.422-1.687a8.666 8.666 0 00-3.656-1.406 2.455 2.455 0 00-1.266.7q-4.641.844-9.422 1.406.138-1.826.141-4.5a34.481 34.481 0 014.5-.422l1.406-.141q1.266-.28.422-1.406a11.955 11.955 0 00-2.672-.844 1.664 1.664 0 00-1.406.7q-1.266.422-2.25.7a24.648 24.648 0 00.14-2.672q.7-1.124.282-1.406a6.457 6.457 0 00-3.509-1.965zm-3.094 21.656q-.562-.28-.422.563a17.366 17.366 0 001.407 1.969 5.265 5.265 0 002.25 1.547 3.087 3.087 0 00.984.141q.561-.138.281-1.125-.7-2.109-1.828-2.25a11.7 11.7 0 01-2.672-.844z"/><path id="紋" class="cls-1" d="M35 0a35 35 0 1035 35A35 35 0 0035 0zm0 62.836A27.833 27.833 0 1162.833 35 27.833 27.833 0 0135 62.833zm11.222-43.873a6.934 6.934 0 00-.831-1.257 1.769 1.769 0 00-1.044-.8 3.468 3.468 0 00-1.527.372s-1.125.341-1.8.53-3.324.486-5.176.716-5.473.081-5.527.135-.149-.03-.149-.03v-1.645a.213.213 0 01.162-.2 36.02 36.02 0 005.027-.263c3.122-.345 7.6-.892 8.027-.77a3.545 3.545 0 001.676.54 2.911 2.911 0 002.3-.757 4.319 4.319 0 00.527-3.216 6.407 6.407 0 00-1.108-1.986 2.211 2.211 0 00-2.067-.966 41.2 41.2 0 01-4.3.75c-1.2.108-2.23.351-5.567.554s-4.919.527-5.5.3a5.193 5.193 0 00-2.582-.97 5.607 5.607 0 00-3.142.676 3.181 3.181 0 00-1.709 1.743c-.716 1.527-1.27 1.77-.581 3.257a5.762 5.762 0 01.419 3.122c0 .432-.081 5.621-.081 8.743s-.013 6.1.128 6.628c-.568-.122-1.135-.405-1.4-.405a10.35 10.35 0 00-2.9.405 8.243 8.243 0 01-4.885-.466c-.385-.385-.953-.912-1.378-.73s-.466.264-.466.405.01.172-1.054 1.236a5.3 5.3 0 00-1.64 4.626c.264 2.088 2.5 3.618 2.817 3.932a2.924 2.924 0 001.743.912 2.493 2.493 0 001.561-.608 16.025 16.025 0 014.236-2.148c1.054-.122 1.318-.466 1.581-.2a.648.648 0 01.3.649.926.926 0 00-.243.791c0 .547.108 2.75.108 4.155s-.162 2.865-.162 3.513a1.864 1.864 0 01-.081 1.216 4.546 4.546 0 00-1.892 1.635c-.892 1.338-.78 2.422-.608 2.595a9.933 9.933 0 003.385 2.777c2.27 1.176 3.345 1.52 3.973 1.216s2.371-3.162 4.176-4.378 4.013-2.858 4.338-3.466a14.5 14.5 0 012.25-.324 4.343 4.343 0 011.155.223 19.017 19.017 0 013.568 3.344c1.5 1.905 2.25 2.8 3.75 3.324a4.4 4.4 0 002.736.385 3.811 3.811 0 001.52-.689s1.419-.973 3.3-2.291a32.99 32.99 0 006.061-6.3s.689-1.034 1.074-1.743-.061-.243-.223-.243-2.923 1.227-3.865 1.48a5.676 5.676 0 01-3.432.243c-1.405-.378-4.392-1.148-4.892-1.649s-.986-.932-.73-1.189c0 0 .581-.737 1.081-1.236s1-.378 2.324-.595A3.407 3.407 0 0050.9 43.7c1.885-1.257 2.007-1.6 2.007-2.047a2.418 2.418 0 00.02-1.074 1.85 1.85 0 01-.365-.811l.1-.1a20.291 20.291 0 013 .081c.669.162 1.547.892 2.973.486s1.486-.568 1.75-1.155a8.4 8.4 0 001.115-4.317 9.6 9.6 0 00-1.351-4.77c-.865-1.189-1.189-1.432-2.459-1.432-2.3 0-2.351.865-3.459 1.513a15.04 15.04 0 01-4.591 1.916 47.239 47.239 0 01-4.784.243c-1.378 0-7.865.351-10.081.351s-3.783-.027-3.973-.027a.435.435 0 01-.27-.338l-.014-1.5a.3.3 0 01.3-.338c.324 0 6.905-.446 8.77-.595a22.233 22.233 0 014-.054 4.652 4.652 0 001.851.541c1.095 0 1.547.074 1.905-.284a3.172 3.172 0 00.973-2.77c-.2-1.513-1.77-3.594-2.811-3.513a6.1 6.1 0 00-2.067.649 38.657 38.657 0 01-6.608.554c-1.919 0-5.824.243-5.824.243s-.622.014-.622-.23-.027-1.162-.027-1.162a.378.378 0 01.257-.338c.257-.095 1.717-.041 3.311-.162s5.743-.5 6.486-.594a2.394 2.394 0 011.554.081 5.318 5.318 0 002.81.253 2.3 2.3 0 001.7-2.054 5.044 5.044 0 00-.254-1.983zm-4.906 23.682a2.186 2.186 0 01-1.135.446 1.612 1.612 0 01-1.439-.75 9.377 9.377 0 00-2.817-1.764 11.969 11.969 0 00-4.662-.1A5.505 5.505 0 0028.08 42a4.468 4.468 0 00-.649 2.736.87.87 0 001.074.973 3.224 3.224 0 011.419.182c.2.2 1.6.669 1.885 1.419-.324 0-2.878.649-3.426.811a5.807 5.807 0 01-.831.3 2.021 2.021 0 01-.527-.73c-.213-.213-.2-1.682-.2-3.75s.162-3.588.162-3.588-.142-.162 1.095-.264 4.118-.489 5.289-.489 3.486-.02 6.142-.02 4.257-.2 4.358-.1.182-.182.365 0c.222.976-2.23 2.8-2.92 3.165z"/></svg>